G75*
%MOIN*%
%OFA0B0*%
%FSLAX24Y24*%
%IPPOS*%
%LPD*%
%AMOC8*
5,1,8,0,0,1.08239X$1,22.5*
%
%ADD10C,0.0780*%
%ADD11C,0.0424*%
%ADD12R,0.0424X0.0424*%
%ADD13C,0.0780*%
%ADD14C,0.0317*%
D10*
X013593Y010801D02*
X014333Y010801D01*
X014333Y011801D02*
X013593Y011801D01*
D11*
X026981Y012650D03*
X027481Y012650D03*
X027481Y013150D03*
X026981Y013150D03*
X026981Y013650D03*
X027481Y013650D03*
X027481Y014150D03*
X027481Y014650D03*
X026981Y014150D03*
D12*
X026981Y014650D03*
D13*
X012739Y008531D03*
X013739Y008531D03*
X014739Y008531D03*
X015739Y008531D03*
X016739Y008531D03*
X017739Y008531D03*
X018739Y008531D03*
X019739Y008531D03*
X020739Y008531D03*
X021739Y008531D03*
X022739Y008531D03*
X023739Y008531D03*
X024739Y008531D03*
X025739Y008531D03*
X026739Y008531D03*
X027739Y008531D03*
X028739Y008531D03*
X029739Y008531D03*
X030739Y008531D03*
X030735Y010272D03*
X030735Y011272D03*
X030735Y012272D03*
D14*
X022822Y014752D03*
X022822Y015106D03*
X022467Y015106D03*
X022467Y014752D03*
X022113Y014752D03*
X022113Y015106D03*
X021759Y015106D03*
X021759Y014752D03*
X021404Y014752D03*
X021404Y015106D03*
X021404Y015461D03*
X021404Y015815D03*
X021404Y016169D03*
X021759Y016169D03*
X022113Y016169D03*
X022113Y015815D03*
X022467Y015815D03*
X022467Y016169D03*
X022822Y016169D03*
X022822Y015815D03*
X022822Y015461D03*
X022467Y015461D03*
X022113Y015461D03*
X021759Y015461D03*
X021759Y015815D03*
M02*
