G75*
%MOIN*%
%OFA0B0*%
%FSLAX24Y24*%
%IPPOS*%
%LPD*%
%AMOC8*
5,1,8,0,0,1.08239X$1,22.5*
%
%ADD10C,0.0000*%
%ADD11C,0.0050*%
D10*
X011877Y007941D02*
X011877Y009516D01*
X011876Y009516D02*
X011878Y009542D01*
X011883Y009567D01*
X011891Y009591D01*
X011902Y009615D01*
X011917Y009636D01*
X011934Y009655D01*
X011953Y009672D01*
X011975Y009687D01*
X011998Y009698D01*
X012022Y009706D01*
X012047Y009711D01*
X012073Y009713D01*
X012703Y009713D01*
X012703Y009712D02*
X012729Y009714D01*
X012754Y009719D01*
X012778Y009727D01*
X012802Y009738D01*
X012823Y009753D01*
X012842Y009770D01*
X012859Y009789D01*
X012874Y009811D01*
X012885Y009834D01*
X012893Y009858D01*
X012898Y009883D01*
X012900Y009909D01*
X012900Y012665D01*
X012901Y012691D01*
X012898Y012716D01*
X012892Y012741D01*
X012882Y012764D01*
X012870Y012786D01*
X012854Y012806D01*
X012835Y012823D01*
X012814Y012838D01*
X012792Y012849D01*
X012768Y012857D01*
X012743Y012862D01*
X012073Y012862D01*
X012047Y012864D01*
X012022Y012869D01*
X011998Y012877D01*
X011975Y012888D01*
X011953Y012903D01*
X011934Y012920D01*
X011917Y012939D01*
X011902Y012961D01*
X011891Y012984D01*
X011883Y013008D01*
X011878Y013033D01*
X011876Y013059D01*
X011877Y013059D02*
X011877Y023098D01*
X011876Y023098D02*
X011878Y023137D01*
X011884Y023175D01*
X011893Y023212D01*
X011906Y023249D01*
X011923Y023284D01*
X011942Y023317D01*
X011965Y023348D01*
X011991Y023377D01*
X012020Y023403D01*
X012051Y023426D01*
X012084Y023445D01*
X012119Y023462D01*
X012156Y023475D01*
X012193Y023484D01*
X012231Y023490D01*
X012270Y023492D01*
X031168Y023492D01*
X031207Y023490D01*
X031245Y023484D01*
X031282Y023475D01*
X031319Y023462D01*
X031354Y023445D01*
X031387Y023426D01*
X031418Y023403D01*
X031447Y023377D01*
X031473Y023348D01*
X031496Y023317D01*
X031515Y023284D01*
X031532Y023249D01*
X031545Y023212D01*
X031554Y023175D01*
X031560Y023137D01*
X031562Y023098D01*
X031562Y007941D01*
X031560Y007915D01*
X031555Y007890D01*
X031547Y007866D01*
X031536Y007843D01*
X031521Y007821D01*
X031504Y007802D01*
X031485Y007785D01*
X031464Y007770D01*
X031440Y007759D01*
X031416Y007751D01*
X031391Y007746D01*
X031365Y007744D01*
X012073Y007744D01*
X012047Y007746D01*
X012022Y007751D01*
X011998Y007759D01*
X011975Y007770D01*
X011953Y007785D01*
X011934Y007802D01*
X011917Y007821D01*
X011902Y007843D01*
X011891Y007866D01*
X011883Y007890D01*
X011878Y007915D01*
X011876Y007941D01*
D11*
X012325Y022808D02*
X012325Y023259D01*
X012551Y023034D01*
X012250Y023034D01*
X012711Y022808D02*
X013011Y022808D01*
X012861Y022808D02*
X012861Y023259D01*
X013011Y023109D01*
X013171Y023184D02*
X013171Y022884D01*
X013246Y022808D01*
X013396Y022808D01*
X013471Y022884D01*
X013171Y023184D01*
X013246Y023259D01*
X013396Y023259D01*
X013471Y023184D01*
X013471Y022884D01*
X013632Y022808D02*
X013932Y022808D01*
X013632Y023109D01*
X013632Y023184D01*
X013707Y023259D01*
X013857Y023259D01*
X013932Y023184D01*
X014092Y023259D02*
X014392Y022808D01*
X014552Y022808D02*
X014853Y022808D01*
X014552Y023109D01*
X014552Y023184D01*
X014627Y023259D01*
X014778Y023259D01*
X014853Y023184D01*
X015013Y023184D02*
X015313Y022884D01*
X015238Y022808D01*
X015088Y022808D01*
X015013Y022884D01*
X015013Y023184D01*
X015088Y023259D01*
X015238Y023259D01*
X015313Y023184D01*
X015313Y022884D01*
X015473Y023259D02*
X015773Y022808D01*
X016009Y022808D02*
X016009Y023259D01*
X016234Y023034D01*
X015934Y023034D01*
X016394Y023109D02*
X016694Y022808D01*
X016394Y022808D01*
X016394Y023109D02*
X016394Y023184D01*
X016469Y023259D01*
X016619Y023259D01*
X016694Y023184D01*
X017036Y023259D02*
X017336Y023259D01*
X017186Y023259D02*
X017186Y022808D01*
X017571Y022884D02*
X017571Y023259D01*
X017646Y023259D02*
X017496Y023259D01*
X017571Y022884D02*
X017646Y022808D01*
X017721Y022808D01*
X017797Y022884D01*
X018235Y022884D02*
X018310Y022808D01*
X018460Y022808D01*
X018535Y022884D01*
X018235Y023184D01*
X018235Y022884D01*
X018535Y022884D02*
X018535Y023184D01*
X018460Y023259D01*
X018310Y023259D01*
X018235Y023184D01*
X018690Y022884D02*
X018690Y022808D01*
X018766Y022808D01*
X018766Y022884D01*
X018690Y022884D01*
X018926Y022808D02*
X019226Y022808D01*
X019076Y022808D02*
X019076Y023259D01*
X019226Y023109D01*
X019386Y022959D02*
X019386Y023259D01*
X019686Y023259D02*
X019686Y022959D01*
X019536Y022808D01*
X019386Y022959D01*
M02*
