G75*
%MOIN*%
%OFA0B0*%
%FSLAX24Y24*%
%IPPOS*%
%LPD*%
%AMOC8*
5,1,8,0,0,1.08239X$1,22.5*
%
%ADD10R,0.0276X0.0434*%
%ADD11R,0.0134X0.0434*%
%ADD12R,0.0434X0.0134*%
%ADD13R,0.1871X0.1871*%
%ADD14R,0.0512X0.0257*%
%ADD15R,0.0591X0.0178*%
%ADD16R,0.0788X0.0749*%
%ADD17R,0.0788X0.0788*%
%ADD18R,0.0290X0.0540*%
%ADD19R,0.1851X0.0434*%
%ADD20R,0.1379X0.0670*%
%ADD21C,0.0780*%
%ADD22R,0.0473X0.0434*%
%ADD23R,0.0512X0.0355*%
%ADD24R,0.0355X0.0512*%
%ADD25R,0.0434X0.0473*%
%ADD26R,0.0355X0.0355*%
%ADD27R,0.0788X0.0591*%
%ADD28R,0.0473X0.0827*%
%ADD29R,0.0640X0.0340*%
%ADD30C,0.0424*%
%ADD31R,0.0424X0.0424*%
%ADD32R,0.1024X0.0434*%
%ADD33R,0.2402X0.1024*%
%ADD34C,0.0780*%
%ADD35C,0.0317*%
D10*
X021306Y018177D03*
X022133Y018177D03*
D11*
X022211Y017035D03*
X022014Y017035D03*
X021818Y017035D03*
X021621Y017035D03*
X021424Y017035D03*
X021227Y017035D03*
X021030Y017035D03*
X020833Y017035D03*
X022408Y017035D03*
X022605Y017035D03*
X022802Y017035D03*
X022999Y017035D03*
X023196Y017035D03*
X023392Y017035D03*
X023392Y013886D03*
X023196Y013886D03*
X022999Y013886D03*
X022802Y013886D03*
X022605Y013886D03*
X022408Y013886D03*
X022211Y013886D03*
X022014Y013886D03*
X021818Y013886D03*
X021621Y013886D03*
X021424Y013886D03*
X021227Y013886D03*
X021030Y013886D03*
X020833Y013886D03*
D12*
X020538Y014181D03*
X020538Y014378D03*
X020538Y014575D03*
X020538Y014772D03*
X020538Y014969D03*
X020538Y015165D03*
X020538Y015362D03*
X020538Y015559D03*
X020538Y015756D03*
X020538Y015953D03*
X020538Y016150D03*
X020538Y016346D03*
X020538Y016543D03*
X020538Y016740D03*
X023688Y016740D03*
X023688Y016543D03*
X023688Y016346D03*
X023688Y016150D03*
X023688Y015953D03*
X023688Y015756D03*
X023688Y015559D03*
X023688Y015362D03*
X023688Y015165D03*
X023688Y014969D03*
X023688Y014772D03*
X023688Y014575D03*
X023688Y014378D03*
X023688Y014181D03*
D13*
X022113Y015461D03*
D14*
X015144Y018000D03*
X015144Y018748D03*
X014121Y018748D03*
X014121Y018374D03*
X014121Y018000D03*
X016877Y010087D03*
X016877Y009713D03*
X016877Y009339D03*
X017900Y009339D03*
X017900Y010087D03*
D15*
X013491Y015106D03*
X013491Y015362D03*
X013491Y015618D03*
X013491Y015874D03*
X013491Y016130D03*
D16*
X012448Y017193D03*
X012448Y014043D03*
D17*
X012448Y015118D03*
X012448Y016118D03*
D18*
X017068Y011681D03*
X017388Y011681D03*
X017708Y011681D03*
D19*
X015735Y011681D03*
X015735Y010894D03*
D20*
X013688Y009949D03*
X013688Y012626D03*
D21*
X013593Y011801D02*
X014333Y011801D01*
X014333Y010801D02*
X013593Y010801D01*
D22*
X017054Y010894D03*
X017723Y010894D03*
X018629Y010894D03*
X019298Y010894D03*
X021266Y012783D03*
X021936Y012783D03*
X020073Y013768D03*
X019404Y013768D03*
X018510Y013768D03*
X017841Y013768D03*
X019396Y017331D03*
X020066Y017331D03*
X020066Y018157D03*
X019396Y018157D03*
X016936Y017862D03*
X016266Y017862D03*
X015007Y017469D03*
X014337Y017469D03*
X024062Y017193D03*
X024731Y017193D03*
X025322Y017193D03*
X025991Y017193D03*
X025440Y016169D03*
X024770Y016169D03*
D23*
X027881Y016465D03*
X027881Y017173D03*
X018570Y018039D03*
X018570Y018748D03*
X013058Y018610D03*
X013058Y017902D03*
X020361Y010480D03*
X020361Y009772D03*
X023077Y009772D03*
X023077Y010480D03*
D24*
X022073Y009260D03*
X021365Y009260D03*
X019318Y012469D03*
X018609Y012469D03*
X015971Y013925D03*
X015262Y013925D03*
X015262Y014713D03*
X015971Y014713D03*
X016247Y018492D03*
X016955Y018492D03*
D25*
X018294Y017488D03*
X018294Y016819D03*
X018294Y016071D03*
X018294Y015402D03*
X023885Y013197D03*
X023885Y012528D03*
X027231Y016484D03*
X027231Y017154D03*
X027428Y017843D03*
X027428Y018512D03*
D26*
X012467Y018669D03*
X012467Y018079D03*
D27*
X024790Y017902D03*
X024790Y018846D03*
X026522Y018846D03*
X026522Y017902D03*
D28*
X022388Y011681D03*
X021719Y011681D03*
X021050Y011681D03*
X021050Y010106D03*
X021719Y010106D03*
X022388Y010106D03*
D29*
X028593Y013687D03*
X030593Y013687D03*
X030593Y015187D03*
X030593Y016049D03*
X030593Y017549D03*
X028593Y017549D03*
X028593Y016049D03*
X028593Y015187D03*
D30*
X027481Y014650D03*
X027481Y014150D03*
X026981Y014150D03*
X026981Y013650D03*
X027481Y013650D03*
X027481Y013150D03*
X026981Y013150D03*
X026981Y012650D03*
X027481Y012650D03*
D31*
X026981Y014650D03*
D32*
X017388Y015945D03*
X017388Y016945D03*
D33*
X015388Y016445D03*
D34*
X012739Y008531D03*
X013739Y008531D03*
X014739Y008531D03*
X015739Y008531D03*
X016739Y008531D03*
X017739Y008531D03*
X018739Y008531D03*
X019739Y008531D03*
X020739Y008531D03*
X021739Y008531D03*
X022739Y008531D03*
X023739Y008531D03*
X024739Y008531D03*
X025739Y008531D03*
X026739Y008531D03*
X027739Y008531D03*
X028739Y008531D03*
X029739Y008531D03*
X030739Y008531D03*
X030735Y010272D03*
X030735Y011272D03*
X030735Y012272D03*
D35*
X022822Y014752D03*
X022822Y015106D03*
X022467Y015106D03*
X022467Y014752D03*
X022113Y014752D03*
X022113Y015106D03*
X021759Y015106D03*
X021759Y014752D03*
X021404Y014752D03*
X021404Y015106D03*
X021404Y015461D03*
X021404Y015815D03*
X021404Y016169D03*
X021759Y016169D03*
X022113Y016169D03*
X022113Y015815D03*
X022467Y015815D03*
X022467Y016169D03*
X022822Y016169D03*
X022822Y015815D03*
X022822Y015461D03*
X022467Y015461D03*
X022113Y015461D03*
X021759Y015461D03*
X021759Y015815D03*
M02*
