G75*
%MOIN*%
%OFA0B0*%
%FSLAX24Y24*%
%IPPOS*%
%LPD*%
%AMOC8*
5,1,8,0,0,1.08239X$1,22.5*
%
%ADD10C,0.0740*%
%ADD11C,0.0384*%
%ADD12R,0.0384X0.0384*%
%ADD13C,0.0740*%
%ADD14C,0.0079*%
%ADD15C,0.0277*%
%ADD16C,0.0160*%
%ADD17C,0.0120*%
%ADD18C,0.0100*%
%ADD19C,0.0060*%
D10*
X013593Y010801D02*
X014333Y010801D01*
X014333Y011801D02*
X013593Y011801D01*
D11*
X026981Y012650D03*
X027481Y012650D03*
X027481Y013150D03*
X026981Y013150D03*
X026981Y013650D03*
X027481Y013650D03*
X027481Y014150D03*
X027481Y014650D03*
X026981Y014150D03*
D12*
X026981Y014650D03*
D13*
X030735Y012272D03*
X030735Y011272D03*
X030735Y010272D03*
X030739Y008531D03*
X029739Y008531D03*
X028739Y008531D03*
X027739Y008531D03*
X026739Y008531D03*
X025739Y008531D03*
X024739Y008531D03*
X023739Y008531D03*
X022739Y008531D03*
X021739Y008531D03*
X020739Y008531D03*
X019739Y008531D03*
X018739Y008531D03*
X017739Y008531D03*
X016739Y008531D03*
X015739Y008531D03*
X014739Y008531D03*
X013739Y008531D03*
X012739Y008531D03*
D14*
X012018Y007926D02*
X012033Y007900D01*
X012059Y007885D01*
X012073Y007883D01*
X016197Y007883D01*
X016166Y007914D01*
X015964Y008117D01*
X015832Y008062D01*
X015645Y008062D01*
X015473Y008134D01*
X015341Y008266D01*
X015269Y008438D01*
X015269Y008625D01*
X015341Y008797D01*
X015473Y008929D01*
X015645Y009001D01*
X015832Y009001D01*
X016005Y008929D01*
X016137Y008797D01*
X016208Y008625D01*
X016208Y008438D01*
X016174Y008357D01*
X016391Y008140D01*
X016467Y008140D01*
X016341Y008266D01*
X016269Y008438D01*
X016269Y008625D01*
X016341Y008797D01*
X016473Y008929D01*
X016599Y008982D01*
X016599Y009109D01*
X016693Y009203D01*
X019591Y012101D01*
X019591Y013189D01*
X019534Y013132D01*
X019337Y013132D01*
X019198Y013271D01*
X019198Y013389D01*
X019196Y013391D01*
X019198Y013455D01*
X019198Y013780D01*
X019094Y013884D01*
X019026Y013884D01*
X019162Y013748D01*
X019162Y013551D01*
X019023Y013411D01*
X018963Y013411D01*
X018946Y013390D01*
X018946Y012035D01*
X019005Y011977D01*
X019005Y011779D01*
X018865Y011640D01*
X018668Y011640D01*
X018528Y011779D01*
X018528Y011977D01*
X018587Y012035D01*
X018587Y013443D01*
X018580Y013507D01*
X018587Y013516D01*
X018587Y013527D01*
X018633Y013573D01*
X018686Y013639D01*
X018686Y013748D01*
X018821Y013884D01*
X018110Y013884D01*
X018016Y013977D01*
X017820Y014174D01*
X017820Y017338D01*
X017913Y017431D01*
X018110Y017628D01*
X022920Y017628D01*
X022998Y017707D01*
X023196Y017707D01*
X023335Y017567D01*
X023335Y017370D01*
X023196Y017230D01*
X022998Y017230D01*
X022920Y017309D01*
X018242Y017309D01*
X018138Y017206D01*
X018138Y014306D01*
X018242Y014203D01*
X018270Y014203D01*
X018213Y014260D01*
X018213Y014457D01*
X018353Y014596D01*
X018489Y014596D01*
X018489Y014732D01*
X018628Y014872D01*
X018765Y014872D01*
X018765Y015008D01*
X018904Y015148D01*
X019079Y015148D01*
X019079Y015183D01*
X018904Y015183D01*
X018765Y015323D01*
X018765Y015419D01*
X018628Y015419D01*
X018489Y015559D01*
X018489Y015756D01*
X018628Y015896D01*
X018725Y015896D01*
X018725Y016071D01*
X018865Y016211D01*
X019062Y016211D01*
X019201Y016071D01*
X019201Y015968D01*
X019438Y015968D01*
X019434Y015972D01*
X019434Y016169D01*
X019573Y016309D01*
X019685Y016309D01*
X020413Y017037D01*
X027218Y017037D01*
X027312Y016944D01*
X028060Y016196D01*
X028060Y014371D01*
X027966Y014278D01*
X027767Y014078D01*
X027728Y013985D01*
X027646Y013903D01*
X027639Y013900D01*
X027646Y013897D01*
X027728Y013815D01*
X027730Y013809D01*
X028202Y013809D01*
X028478Y013533D01*
X028571Y013440D01*
X028571Y011812D01*
X028335Y011576D01*
X028242Y011482D01*
X025880Y011482D01*
X024044Y009647D01*
X024044Y009535D01*
X023904Y009396D01*
X023707Y009396D01*
X023568Y009535D01*
X023568Y009732D01*
X023707Y009872D01*
X023819Y009872D01*
X025748Y011801D01*
X028110Y011801D01*
X028253Y011944D01*
X028253Y013308D01*
X028070Y013490D01*
X027730Y013490D01*
X027728Y013485D01*
X027646Y013403D01*
X027639Y013400D01*
X027646Y013397D01*
X027728Y013315D01*
X027730Y013309D01*
X027915Y013309D01*
X028084Y013140D01*
X028178Y013046D01*
X028178Y012127D01*
X028020Y011969D01*
X027927Y011876D01*
X025328Y011876D01*
X024162Y010710D01*
X024162Y010598D01*
X024023Y010459D01*
X023825Y010459D01*
X023686Y010598D01*
X023686Y010795D01*
X023825Y010935D01*
X023937Y010935D01*
X025103Y012101D01*
X025103Y012101D01*
X025196Y012195D01*
X027795Y012195D01*
X027859Y012259D01*
X027859Y012914D01*
X027783Y012990D01*
X027730Y012990D01*
X027728Y012985D01*
X027646Y012903D01*
X027639Y012900D01*
X027646Y012897D01*
X027728Y012815D01*
X027772Y012708D01*
X027772Y012592D01*
X027728Y012485D01*
X027646Y012403D01*
X027539Y012358D01*
X027423Y012358D01*
X027316Y012403D01*
X027255Y012464D01*
X027238Y012438D01*
X027192Y012392D01*
X027138Y012356D01*
X027078Y012331D01*
X027014Y012318D01*
X027006Y012318D01*
X027006Y012625D01*
X026956Y012625D01*
X026650Y012625D01*
X026650Y012617D01*
X026662Y012553D01*
X026687Y012493D01*
X026724Y012438D01*
X026770Y012392D01*
X026824Y012356D01*
X026884Y012331D01*
X026948Y012318D01*
X026956Y012318D01*
X026956Y012625D01*
X026956Y012674D01*
X026650Y012674D01*
X026650Y012682D01*
X026662Y012746D01*
X026687Y012807D01*
X026724Y012861D01*
X026770Y012907D01*
X026795Y012924D01*
X026734Y012985D01*
X026690Y013092D01*
X026690Y013208D01*
X026734Y013315D01*
X026795Y013375D01*
X026770Y013392D01*
X026724Y013438D01*
X026687Y013493D01*
X026662Y013553D01*
X026650Y013617D01*
X026650Y013625D01*
X026956Y013625D01*
X026956Y013674D01*
X026650Y013674D01*
X026650Y013682D01*
X026662Y013746D01*
X026687Y013807D01*
X026724Y013861D01*
X026762Y013900D01*
X026724Y013938D01*
X026687Y013993D01*
X026662Y014053D01*
X026650Y014117D01*
X026650Y014125D01*
X026956Y014125D01*
X026956Y014174D01*
X026650Y014174D01*
X026650Y014182D01*
X026662Y014246D01*
X026687Y014307D01*
X026724Y014361D01*
X026735Y014372D01*
X026690Y014417D01*
X026690Y014883D01*
X026748Y014941D01*
X026822Y014941D01*
X026822Y015763D01*
X026614Y015971D01*
X024506Y015971D01*
X024506Y015962D01*
X024367Y015823D01*
X024170Y015823D01*
X024030Y015962D01*
X024030Y016160D01*
X024170Y016299D01*
X024367Y016299D01*
X024377Y016289D01*
X026746Y016289D01*
X026839Y016196D01*
X027140Y015895D01*
X027140Y014941D01*
X027214Y014941D01*
X027229Y014926D01*
X027229Y016182D01*
X026968Y016443D01*
X020801Y016443D01*
X020440Y016082D01*
X020698Y016082D01*
X020708Y016092D01*
X020840Y016092D01*
X020998Y015935D01*
X021091Y015842D01*
X021091Y011078D01*
X022809Y009360D01*
X022902Y009267D01*
X022902Y008972D01*
X023005Y008929D01*
X023086Y008849D01*
X023086Y012431D01*
X022325Y013175D01*
X022211Y013175D01*
X022072Y013315D01*
X022072Y013512D01*
X022211Y013651D01*
X022408Y013651D01*
X022548Y013512D01*
X022548Y013403D01*
X023394Y012576D01*
X023395Y012444D01*
X023384Y012433D01*
X023384Y008841D01*
X023473Y008929D01*
X023645Y009001D01*
X023832Y009001D01*
X023939Y008957D01*
X026413Y011431D01*
X030293Y011431D01*
X030337Y011538D01*
X030469Y011670D01*
X030642Y011741D01*
X030828Y011741D01*
X031001Y011670D01*
X031133Y011538D01*
X031204Y011365D01*
X031204Y011178D01*
X031133Y011006D01*
X031001Y010874D01*
X030828Y010802D01*
X030642Y010802D01*
X030469Y010874D01*
X030337Y011006D01*
X030293Y011112D01*
X026545Y011112D01*
X024164Y008731D01*
X024208Y008625D01*
X024208Y008438D01*
X024137Y008266D01*
X024005Y008134D01*
X023832Y008062D01*
X023645Y008062D01*
X023473Y008134D01*
X023384Y008222D01*
X023384Y008181D01*
X023388Y008179D01*
X023400Y008047D01*
X023296Y007923D01*
X023296Y007914D01*
X023265Y007883D01*
X031365Y007883D01*
X031380Y007885D01*
X031405Y007900D01*
X031420Y007926D01*
X031422Y007941D01*
X031422Y019161D01*
X012016Y019161D01*
X012016Y013059D01*
X012018Y013044D01*
X012033Y013018D01*
X012059Y013004D01*
X012073Y013002D01*
X012694Y013002D01*
X012701Y013007D01*
X012750Y013002D01*
X012801Y013002D01*
X012807Y012995D01*
X012843Y012991D01*
X012980Y012890D01*
X012980Y012890D01*
X013048Y012735D01*
X013048Y012735D01*
X013040Y012658D01*
X013040Y009819D01*
X012950Y009663D01*
X012950Y009663D01*
X012950Y009663D01*
X012794Y009573D01*
X012073Y009573D01*
X012059Y009571D01*
X012033Y009556D01*
X012018Y009531D01*
X012016Y009516D01*
X012016Y007941D01*
X012018Y007926D01*
X012036Y007899D02*
X016182Y007899D01*
X016105Y007976D02*
X012016Y007976D01*
X012016Y008053D02*
X012563Y008053D01*
X012543Y008059D02*
X012620Y008035D01*
X012699Y008022D01*
X012699Y008022D01*
X012699Y008492D01*
X012229Y008492D01*
X012229Y008491D01*
X012242Y008412D01*
X012267Y008336D01*
X012303Y008265D01*
X012350Y008200D01*
X012407Y008143D01*
X012472Y008096D01*
X012543Y008059D01*
X012424Y008130D02*
X012016Y008130D01*
X012016Y008208D02*
X012345Y008208D01*
X012293Y008285D02*
X012016Y008285D01*
X012016Y008362D02*
X012258Y008362D01*
X012238Y008439D02*
X012016Y008439D01*
X012016Y008516D02*
X012699Y008516D01*
X012699Y008492D02*
X012699Y008571D01*
X012229Y008571D01*
X012229Y008572D01*
X012242Y008651D01*
X012267Y008727D01*
X012303Y008798D01*
X012350Y008863D01*
X012407Y008920D01*
X012472Y008967D01*
X012543Y009004D01*
X012620Y009028D01*
X012699Y009041D01*
X012699Y009041D01*
X012699Y008571D01*
X012778Y008571D01*
X012778Y009041D01*
X012779Y009041D01*
X012858Y009028D01*
X012934Y009004D01*
X013006Y008967D01*
X013071Y008920D01*
X013127Y008863D01*
X013174Y008798D01*
X013211Y008727D01*
X013236Y008651D01*
X013248Y008572D01*
X013248Y008571D01*
X012778Y008571D01*
X012778Y008492D01*
X012778Y008022D01*
X012779Y008022D01*
X012858Y008035D01*
X012934Y008059D01*
X013006Y008096D01*
X013071Y008143D01*
X013127Y008200D01*
X013174Y008265D01*
X013211Y008336D01*
X013236Y008412D01*
X013248Y008491D01*
X013248Y008492D01*
X012778Y008492D01*
X012699Y008492D01*
X012699Y008439D02*
X012778Y008439D01*
X012778Y008362D02*
X012699Y008362D01*
X012699Y008285D02*
X012778Y008285D01*
X012778Y008208D02*
X012699Y008208D01*
X012699Y008130D02*
X012778Y008130D01*
X012778Y008053D02*
X012699Y008053D01*
X012915Y008053D02*
X016027Y008053D01*
X016246Y008285D02*
X016333Y008285D01*
X016324Y008208D02*
X016399Y008208D01*
X016301Y008362D02*
X016177Y008362D01*
X016208Y008439D02*
X016269Y008439D01*
X016269Y008516D02*
X016208Y008516D01*
X016208Y008594D02*
X016269Y008594D01*
X016289Y008671D02*
X016189Y008671D01*
X016157Y008748D02*
X016321Y008748D01*
X016369Y008825D02*
X016109Y008825D01*
X016031Y008903D02*
X016446Y008903D01*
X016595Y008980D02*
X015883Y008980D01*
X015595Y008980D02*
X014883Y008980D01*
X014832Y009001D02*
X014645Y009001D01*
X014473Y008929D01*
X014341Y008797D01*
X014269Y008625D01*
X014269Y008438D01*
X014341Y008266D01*
X014473Y008134D01*
X014645Y008062D01*
X014832Y008062D01*
X015005Y008134D01*
X015137Y008266D01*
X015208Y008438D01*
X015208Y008625D01*
X015137Y008797D01*
X015005Y008929D01*
X014832Y009001D01*
X015031Y008903D02*
X015446Y008903D01*
X015369Y008825D02*
X015109Y008825D01*
X015157Y008748D02*
X015321Y008748D01*
X015289Y008671D02*
X015189Y008671D01*
X015208Y008594D02*
X015269Y008594D01*
X015269Y008516D02*
X015208Y008516D01*
X015208Y008439D02*
X015269Y008439D01*
X015301Y008362D02*
X015177Y008362D01*
X015145Y008285D02*
X015333Y008285D01*
X015399Y008208D02*
X015079Y008208D01*
X014997Y008130D02*
X015481Y008130D01*
X014481Y008130D02*
X013997Y008130D01*
X014005Y008134D02*
X014137Y008266D01*
X014208Y008438D01*
X014208Y008625D01*
X014137Y008797D01*
X014005Y008929D01*
X013918Y008965D01*
X013918Y009020D01*
X016360Y011462D01*
X016465Y011567D01*
X016465Y012036D01*
X016524Y012094D01*
X016524Y012292D01*
X016385Y012431D01*
X016187Y012431D01*
X016048Y012292D01*
X016048Y012094D01*
X016107Y012036D01*
X016107Y011716D01*
X013559Y009169D01*
X013559Y008965D01*
X013473Y008929D01*
X013341Y008797D01*
X013269Y008625D01*
X013269Y008438D01*
X013341Y008266D01*
X013473Y008134D01*
X013645Y008062D01*
X013832Y008062D01*
X014005Y008134D01*
X014079Y008208D02*
X014399Y008208D01*
X014333Y008285D02*
X014145Y008285D01*
X014177Y008362D02*
X014301Y008362D01*
X014269Y008439D02*
X014208Y008439D01*
X014208Y008516D02*
X014269Y008516D01*
X014269Y008594D02*
X014208Y008594D01*
X014189Y008671D02*
X014289Y008671D01*
X014321Y008748D02*
X014157Y008748D01*
X014109Y008825D02*
X014369Y008825D01*
X014446Y008903D02*
X014031Y008903D01*
X013918Y008980D02*
X014595Y008980D01*
X014187Y009289D02*
X016779Y009289D01*
X016856Y009366D02*
X014264Y009366D01*
X014341Y009443D02*
X016933Y009443D01*
X017010Y009521D02*
X014419Y009521D01*
X014496Y009598D02*
X017088Y009598D01*
X017165Y009675D02*
X014573Y009675D01*
X014650Y009752D02*
X017242Y009752D01*
X017319Y009830D02*
X014728Y009830D01*
X014805Y009907D02*
X017397Y009907D01*
X017474Y009984D02*
X014882Y009984D01*
X014959Y010061D02*
X017551Y010061D01*
X017628Y010139D02*
X015037Y010139D01*
X015114Y010216D02*
X017706Y010216D01*
X017783Y010293D02*
X015191Y010293D01*
X015268Y010370D02*
X017860Y010370D01*
X017937Y010448D02*
X015346Y010448D01*
X015423Y010525D02*
X018015Y010525D01*
X018092Y010602D02*
X015500Y010602D01*
X015577Y010679D02*
X018169Y010679D01*
X018246Y010756D02*
X015654Y010756D01*
X015732Y010834D02*
X018324Y010834D01*
X018401Y010911D02*
X015809Y010911D01*
X015886Y010988D02*
X018478Y010988D01*
X018555Y011065D02*
X015963Y011065D01*
X016041Y011143D02*
X018633Y011143D01*
X018710Y011220D02*
X016118Y011220D01*
X016195Y011297D02*
X018787Y011297D01*
X018864Y011374D02*
X016272Y011374D01*
X016350Y011452D02*
X018941Y011452D01*
X019019Y011529D02*
X016427Y011529D01*
X016465Y011606D02*
X019096Y011606D01*
X019173Y011683D02*
X018909Y011683D01*
X018986Y011761D02*
X019250Y011761D01*
X019328Y011838D02*
X019005Y011838D01*
X019005Y011915D02*
X019405Y011915D01*
X019482Y011992D02*
X018989Y011992D01*
X018946Y012070D02*
X019559Y012070D01*
X019591Y012147D02*
X018946Y012147D01*
X018946Y012224D02*
X019591Y012224D01*
X019591Y012301D02*
X018946Y012301D01*
X018946Y012379D02*
X019591Y012379D01*
X019591Y012456D02*
X018946Y012456D01*
X018946Y012533D02*
X019591Y012533D01*
X019591Y012610D02*
X018946Y012610D01*
X018946Y012687D02*
X019591Y012687D01*
X019591Y012765D02*
X018946Y012765D01*
X018946Y012842D02*
X019591Y012842D01*
X019591Y012919D02*
X018946Y012919D01*
X018946Y012996D02*
X019591Y012996D01*
X019591Y013074D02*
X018946Y013074D01*
X018946Y013151D02*
X019318Y013151D01*
X019241Y013228D02*
X018946Y013228D01*
X018946Y013305D02*
X019198Y013305D01*
X019198Y013383D02*
X018946Y013383D01*
X019071Y013460D02*
X019198Y013460D01*
X019198Y013537D02*
X019148Y013537D01*
X019162Y013614D02*
X019198Y013614D01*
X019198Y013692D02*
X019162Y013692D01*
X019141Y013769D02*
X019198Y013769D01*
X019132Y013846D02*
X019064Y013846D01*
X018784Y013846D02*
X013828Y013846D01*
X013828Y013769D02*
X018706Y013769D01*
X018686Y013692D02*
X013828Y013692D01*
X013828Y013614D02*
X018666Y013614D01*
X018597Y013537D02*
X013828Y013537D01*
X013828Y013460D02*
X018585Y013460D01*
X018587Y013383D02*
X013828Y013383D01*
X013828Y013305D02*
X018587Y013305D01*
X018587Y013228D02*
X013828Y013228D01*
X013828Y013151D02*
X018587Y013151D01*
X018587Y013074D02*
X013828Y013074D01*
X013828Y012996D02*
X018587Y012996D01*
X018587Y012919D02*
X013828Y012919D01*
X013828Y012842D02*
X018587Y012842D01*
X018587Y012765D02*
X013828Y012765D01*
X013828Y012687D02*
X018587Y012687D01*
X018587Y012610D02*
X013828Y012610D01*
X013828Y012533D02*
X018587Y012533D01*
X018587Y012456D02*
X013828Y012456D01*
X013828Y012379D02*
X016135Y012379D01*
X016058Y012301D02*
X013828Y012301D01*
X013828Y012271D02*
X013828Y017547D01*
X013886Y017606D01*
X013886Y017803D01*
X013747Y017943D01*
X013550Y017943D01*
X013410Y017803D01*
X013410Y017606D01*
X013469Y017547D01*
X013469Y012258D01*
X013327Y012199D01*
X013195Y012067D01*
X013124Y011895D01*
X013124Y011708D01*
X013195Y011535D01*
X013327Y011403D01*
X013500Y011332D01*
X014427Y011332D01*
X014599Y011403D01*
X014731Y011535D01*
X014803Y011708D01*
X014803Y011895D01*
X014731Y012067D01*
X014599Y012199D01*
X014427Y012271D01*
X013828Y012271D01*
X013469Y012301D02*
X013040Y012301D01*
X013040Y012224D02*
X013388Y012224D01*
X013275Y012147D02*
X013040Y012147D01*
X013040Y012070D02*
X013198Y012070D01*
X013164Y011992D02*
X013040Y011992D01*
X013040Y011915D02*
X013132Y011915D01*
X013124Y011838D02*
X013040Y011838D01*
X013040Y011761D02*
X013124Y011761D01*
X013134Y011683D02*
X013040Y011683D01*
X013040Y011606D02*
X013166Y011606D01*
X013202Y011529D02*
X013040Y011529D01*
X013040Y011452D02*
X013279Y011452D01*
X013397Y011374D02*
X013040Y011374D01*
X013040Y011297D02*
X013471Y011297D01*
X013474Y011298D02*
X013398Y011273D01*
X013326Y011237D01*
X013261Y011190D01*
X013205Y011133D01*
X013158Y011068D01*
X013121Y010997D01*
X013096Y010920D01*
X013084Y010841D01*
X013084Y010841D01*
X013924Y010841D01*
X013924Y011311D01*
X013553Y011311D01*
X013474Y011298D01*
X013303Y011220D02*
X013040Y011220D01*
X013040Y011143D02*
X013214Y011143D01*
X013156Y011065D02*
X013040Y011065D01*
X013040Y010988D02*
X013118Y010988D01*
X013095Y010911D02*
X013040Y010911D01*
X013040Y010834D02*
X013924Y010834D01*
X013924Y010841D02*
X013924Y010762D01*
X013084Y010762D01*
X013084Y010761D01*
X013096Y010682D01*
X013121Y010606D01*
X013158Y010534D01*
X013205Y010469D01*
X013261Y010413D01*
X013326Y010366D01*
X013398Y010329D01*
X013474Y010304D01*
X013553Y010292D01*
X013924Y010292D01*
X013924Y010762D01*
X014003Y010762D01*
X014003Y010841D01*
X013924Y010841D01*
X013924Y010911D02*
X014003Y010911D01*
X014003Y010841D02*
X014003Y011311D01*
X014373Y011311D01*
X014453Y011298D01*
X014529Y011273D01*
X014600Y011237D01*
X014665Y011190D01*
X014722Y011133D01*
X014769Y011068D01*
X014805Y010997D01*
X014830Y010920D01*
X014843Y010841D01*
X014843Y010841D01*
X014003Y010841D01*
X014003Y010834D02*
X015224Y010834D01*
X015147Y010756D02*
X014842Y010756D01*
X014843Y010761D02*
X014830Y010682D01*
X014805Y010606D01*
X014769Y010534D01*
X014722Y010469D01*
X014665Y010413D01*
X014600Y010366D01*
X014529Y010329D01*
X014453Y010304D01*
X014373Y010292D01*
X014003Y010292D01*
X014003Y010762D01*
X014843Y010762D01*
X014843Y010761D01*
X014829Y010679D02*
X015070Y010679D01*
X014993Y010602D02*
X014803Y010602D01*
X014762Y010525D02*
X014915Y010525D01*
X014838Y010448D02*
X014700Y010448D01*
X014761Y010370D02*
X014607Y010370D01*
X014684Y010293D02*
X014381Y010293D01*
X014529Y010139D02*
X013040Y010139D01*
X013040Y010216D02*
X014606Y010216D01*
X014452Y010061D02*
X013040Y010061D01*
X013040Y009984D02*
X014375Y009984D01*
X014298Y009907D02*
X013040Y009907D01*
X013040Y009830D02*
X014220Y009830D01*
X014143Y009752D02*
X013001Y009752D01*
X012956Y009675D02*
X014066Y009675D01*
X013989Y009598D02*
X012836Y009598D01*
X013040Y010293D02*
X013545Y010293D01*
X013320Y010370D02*
X013040Y010370D01*
X013040Y010448D02*
X013227Y010448D01*
X013164Y010525D02*
X013040Y010525D01*
X013040Y010602D02*
X013123Y010602D01*
X013097Y010679D02*
X013040Y010679D01*
X013040Y010756D02*
X013085Y010756D01*
X013924Y010756D02*
X014003Y010756D01*
X014003Y010679D02*
X013924Y010679D01*
X013924Y010602D02*
X014003Y010602D01*
X014003Y010525D02*
X013924Y010525D01*
X013924Y010448D02*
X014003Y010448D01*
X014003Y010370D02*
X013924Y010370D01*
X013924Y010293D02*
X014003Y010293D01*
X014832Y010911D02*
X015302Y010911D01*
X015379Y010988D02*
X014808Y010988D01*
X014770Y011065D02*
X015456Y011065D01*
X015533Y011143D02*
X014712Y011143D01*
X014624Y011220D02*
X015611Y011220D01*
X015688Y011297D02*
X014455Y011297D01*
X014529Y011374D02*
X015765Y011374D01*
X015842Y011452D02*
X014647Y011452D01*
X014725Y011529D02*
X015920Y011529D01*
X015997Y011606D02*
X014760Y011606D01*
X014792Y011683D02*
X016074Y011683D01*
X016107Y011761D02*
X014803Y011761D01*
X014803Y011838D02*
X016107Y011838D01*
X016107Y011915D02*
X014794Y011915D01*
X014762Y011992D02*
X016107Y011992D01*
X016073Y012070D02*
X014729Y012070D01*
X014651Y012147D02*
X016048Y012147D01*
X016048Y012224D02*
X014539Y012224D01*
X013469Y012379D02*
X013040Y012379D01*
X013040Y012456D02*
X013469Y012456D01*
X013469Y012533D02*
X013040Y012533D01*
X013040Y012610D02*
X013469Y012610D01*
X013469Y012687D02*
X013043Y012687D01*
X013035Y012765D02*
X013469Y012765D01*
X013469Y012842D02*
X013001Y012842D01*
X012980Y012890D02*
X012980Y012890D01*
X012941Y012919D02*
X013469Y012919D01*
X013469Y012996D02*
X012806Y012996D01*
X013469Y013074D02*
X012016Y013074D01*
X012016Y013151D02*
X013469Y013151D01*
X013469Y013228D02*
X012016Y013228D01*
X012016Y013305D02*
X013469Y013305D01*
X013469Y013383D02*
X012016Y013383D01*
X012016Y013460D02*
X013469Y013460D01*
X013469Y013537D02*
X012016Y013537D01*
X012016Y013614D02*
X013469Y013614D01*
X013469Y013692D02*
X012016Y013692D01*
X012016Y013769D02*
X013469Y013769D01*
X013469Y013846D02*
X012016Y013846D01*
X012016Y013923D02*
X013469Y013923D01*
X013469Y014001D02*
X012016Y014001D01*
X012016Y014078D02*
X013469Y014078D01*
X013469Y014155D02*
X012016Y014155D01*
X012016Y014232D02*
X013469Y014232D01*
X013469Y014310D02*
X012016Y014310D01*
X012016Y014387D02*
X013469Y014387D01*
X013469Y014464D02*
X012016Y014464D01*
X012016Y014541D02*
X013469Y014541D01*
X013469Y014618D02*
X012016Y014618D01*
X012016Y014696D02*
X013469Y014696D01*
X013469Y014773D02*
X012016Y014773D01*
X012016Y014850D02*
X013469Y014850D01*
X013469Y014927D02*
X012016Y014927D01*
X012016Y015005D02*
X013469Y015005D01*
X013469Y015082D02*
X012016Y015082D01*
X012016Y015159D02*
X013469Y015159D01*
X013469Y015236D02*
X012016Y015236D01*
X012016Y015314D02*
X013469Y015314D01*
X013469Y015391D02*
X012016Y015391D01*
X012016Y015468D02*
X013469Y015468D01*
X013469Y015545D02*
X012016Y015545D01*
X012016Y015623D02*
X013469Y015623D01*
X013469Y015700D02*
X012016Y015700D01*
X012016Y015777D02*
X013469Y015777D01*
X013469Y015854D02*
X012016Y015854D01*
X012016Y015932D02*
X013469Y015932D01*
X013469Y016009D02*
X012016Y016009D01*
X012016Y016086D02*
X013469Y016086D01*
X013469Y016163D02*
X012016Y016163D01*
X012016Y016241D02*
X013469Y016241D01*
X013469Y016318D02*
X012016Y016318D01*
X012016Y016395D02*
X013469Y016395D01*
X013469Y016472D02*
X012016Y016472D01*
X012016Y016550D02*
X013469Y016550D01*
X013469Y016627D02*
X012016Y016627D01*
X012016Y016704D02*
X013469Y016704D01*
X013469Y016781D02*
X012016Y016781D01*
X012016Y016858D02*
X013469Y016858D01*
X013469Y016936D02*
X012016Y016936D01*
X012016Y017013D02*
X013469Y017013D01*
X013469Y017090D02*
X012016Y017090D01*
X012016Y017167D02*
X013469Y017167D01*
X013469Y017245D02*
X012016Y017245D01*
X012016Y017322D02*
X013469Y017322D01*
X013469Y017399D02*
X012016Y017399D01*
X012016Y017476D02*
X013469Y017476D01*
X013463Y017554D02*
X012016Y017554D01*
X012016Y017631D02*
X013410Y017631D01*
X013410Y017708D02*
X012016Y017708D01*
X012016Y017785D02*
X013410Y017785D01*
X013469Y017863D02*
X012016Y017863D01*
X012016Y017940D02*
X013547Y017940D01*
X013750Y017940D02*
X031422Y017940D01*
X031422Y018017D02*
X012016Y018017D01*
X012016Y018094D02*
X031422Y018094D01*
X031422Y018172D02*
X012016Y018172D01*
X012016Y018249D02*
X031422Y018249D01*
X031422Y018326D02*
X012016Y018326D01*
X012016Y018403D02*
X031422Y018403D01*
X031422Y018481D02*
X012016Y018481D01*
X012016Y018558D02*
X031422Y018558D01*
X031422Y018635D02*
X012016Y018635D01*
X012016Y018712D02*
X031422Y018712D01*
X031422Y018789D02*
X012016Y018789D01*
X012016Y018867D02*
X031422Y018867D01*
X031422Y018944D02*
X012016Y018944D01*
X012016Y019021D02*
X031422Y019021D01*
X031422Y019098D02*
X012016Y019098D01*
X013827Y017863D02*
X031422Y017863D01*
X031422Y017785D02*
X013886Y017785D01*
X013886Y017708D02*
X031422Y017708D01*
X031422Y017631D02*
X023271Y017631D01*
X023335Y017554D02*
X031422Y017554D01*
X031422Y017476D02*
X023335Y017476D01*
X023335Y017399D02*
X031422Y017399D01*
X031422Y017322D02*
X023287Y017322D01*
X023210Y017245D02*
X031422Y017245D01*
X031422Y017167D02*
X018138Y017167D01*
X018138Y017090D02*
X031422Y017090D01*
X031422Y017013D02*
X027243Y017013D01*
X027320Y016936D02*
X031422Y016936D01*
X031422Y016858D02*
X027397Y016858D01*
X027474Y016781D02*
X031422Y016781D01*
X031422Y016704D02*
X027552Y016704D01*
X027629Y016627D02*
X031422Y016627D01*
X031422Y016550D02*
X027706Y016550D01*
X027783Y016472D02*
X031422Y016472D01*
X031422Y016395D02*
X027861Y016395D01*
X027938Y016318D02*
X031422Y016318D01*
X031422Y016241D02*
X028015Y016241D01*
X028060Y016163D02*
X031422Y016163D01*
X031422Y016086D02*
X028060Y016086D01*
X028060Y016009D02*
X031422Y016009D01*
X031422Y015932D02*
X028060Y015932D01*
X028060Y015854D02*
X031422Y015854D01*
X031422Y015777D02*
X028060Y015777D01*
X028060Y015700D02*
X031422Y015700D01*
X031422Y015623D02*
X028060Y015623D01*
X028060Y015545D02*
X031422Y015545D01*
X031422Y015468D02*
X028060Y015468D01*
X028060Y015391D02*
X031422Y015391D01*
X031422Y015314D02*
X028060Y015314D01*
X028060Y015236D02*
X031422Y015236D01*
X031422Y015159D02*
X028060Y015159D01*
X028060Y015082D02*
X031422Y015082D01*
X031422Y015005D02*
X028060Y015005D01*
X028060Y014927D02*
X031422Y014927D01*
X031422Y014850D02*
X028060Y014850D01*
X028060Y014773D02*
X031422Y014773D01*
X031422Y014696D02*
X028060Y014696D01*
X028060Y014618D02*
X031422Y014618D01*
X031422Y014541D02*
X028060Y014541D01*
X028060Y014464D02*
X031422Y014464D01*
X031422Y014387D02*
X028060Y014387D01*
X027998Y014310D02*
X031422Y014310D01*
X031422Y014232D02*
X027921Y014232D01*
X027844Y014155D02*
X031422Y014155D01*
X031422Y014078D02*
X027767Y014078D01*
X027735Y014001D02*
X031422Y014001D01*
X031422Y013923D02*
X027667Y013923D01*
X027696Y013846D02*
X031422Y013846D01*
X031422Y013769D02*
X028243Y013769D01*
X028320Y013692D02*
X031422Y013692D01*
X031422Y013614D02*
X028397Y013614D01*
X028474Y013537D02*
X031422Y013537D01*
X031422Y013460D02*
X028552Y013460D01*
X028571Y013383D02*
X031422Y013383D01*
X031422Y013305D02*
X028571Y013305D01*
X028571Y013228D02*
X031422Y013228D01*
X031422Y013151D02*
X028571Y013151D01*
X028571Y013074D02*
X031422Y013074D01*
X031422Y012996D02*
X028571Y012996D01*
X028571Y012919D02*
X031422Y012919D01*
X031422Y012842D02*
X028571Y012842D01*
X028571Y012765D02*
X030604Y012765D01*
X030616Y012768D02*
X030539Y012744D01*
X030468Y012707D01*
X030403Y012660D01*
X030346Y012603D01*
X030299Y012539D01*
X030263Y012467D01*
X030238Y012391D01*
X030226Y012312D01*
X030226Y012311D01*
X030696Y012311D01*
X030696Y012781D01*
X030695Y012781D01*
X030616Y012768D01*
X030696Y012765D02*
X030774Y012765D01*
X030775Y012781D02*
X030774Y012781D01*
X030774Y012311D01*
X030696Y012311D01*
X030696Y012232D01*
X030774Y012232D01*
X030774Y011762D01*
X030775Y011762D01*
X030854Y011775D01*
X030930Y011800D01*
X031002Y011836D01*
X031067Y011883D01*
X031123Y011940D01*
X031171Y012005D01*
X031207Y012076D01*
X031232Y012152D01*
X031244Y012232D01*
X030774Y012232D01*
X030774Y012311D01*
X031244Y012311D01*
X031244Y012312D01*
X031232Y012391D01*
X031207Y012467D01*
X031171Y012539D01*
X031123Y012603D01*
X031067Y012660D01*
X031002Y012707D01*
X030930Y012744D01*
X030854Y012768D01*
X030775Y012781D01*
X030866Y012765D02*
X031422Y012765D01*
X031422Y012687D02*
X031029Y012687D01*
X031117Y012610D02*
X031422Y012610D01*
X031422Y012533D02*
X031173Y012533D01*
X031211Y012456D02*
X031422Y012456D01*
X031422Y012379D02*
X031234Y012379D01*
X031244Y012232D02*
X031244Y012232D01*
X031243Y012224D02*
X031422Y012224D01*
X031422Y012147D02*
X031230Y012147D01*
X031204Y012070D02*
X031422Y012070D01*
X031422Y011992D02*
X031162Y011992D01*
X031099Y011915D02*
X031422Y011915D01*
X031422Y011838D02*
X031004Y011838D01*
X030967Y011683D02*
X031422Y011683D01*
X031422Y011606D02*
X031064Y011606D01*
X031136Y011529D02*
X031422Y011529D01*
X031422Y011452D02*
X031168Y011452D01*
X031200Y011374D02*
X031422Y011374D01*
X031422Y011297D02*
X031204Y011297D01*
X031204Y011220D02*
X031422Y011220D01*
X031422Y011143D02*
X031190Y011143D01*
X031158Y011065D02*
X031422Y011065D01*
X031422Y010988D02*
X031115Y010988D01*
X031038Y010911D02*
X031422Y010911D01*
X031422Y010834D02*
X030904Y010834D01*
X030828Y010741D02*
X030642Y010741D01*
X030469Y010670D01*
X030337Y010538D01*
X030293Y010431D01*
X026413Y010431D01*
X024939Y008957D01*
X024832Y009001D01*
X024645Y009001D01*
X024473Y008929D01*
X024341Y008797D01*
X024269Y008625D01*
X024269Y008438D01*
X024341Y008266D01*
X024473Y008134D01*
X024645Y008062D01*
X024832Y008062D01*
X025005Y008134D01*
X025137Y008266D01*
X025208Y008438D01*
X025208Y008625D01*
X025164Y008731D01*
X026545Y010112D01*
X030293Y010112D01*
X030337Y010006D01*
X030469Y009874D01*
X030642Y009802D01*
X030828Y009802D01*
X031001Y009874D01*
X031133Y010006D01*
X031204Y010178D01*
X031204Y010365D01*
X031133Y010538D01*
X031001Y010670D01*
X030828Y010741D01*
X030977Y010679D02*
X031422Y010679D01*
X031422Y010602D02*
X031068Y010602D01*
X031138Y010525D02*
X031422Y010525D01*
X031422Y010448D02*
X031170Y010448D01*
X031202Y010370D02*
X031422Y010370D01*
X031422Y010293D02*
X031204Y010293D01*
X031204Y010216D02*
X031422Y010216D01*
X031422Y010139D02*
X031188Y010139D01*
X031156Y010061D02*
X031422Y010061D01*
X031422Y009984D02*
X031111Y009984D01*
X031034Y009907D02*
X031422Y009907D01*
X031422Y009830D02*
X030894Y009830D01*
X030576Y009830D02*
X026262Y009830D01*
X026340Y009907D02*
X030436Y009907D01*
X030359Y009984D02*
X026417Y009984D01*
X026494Y010061D02*
X030314Y010061D01*
X030300Y010448D02*
X025880Y010448D01*
X025957Y010525D02*
X030332Y010525D01*
X030401Y010602D02*
X026035Y010602D01*
X026112Y010679D02*
X030492Y010679D01*
X030566Y010834D02*
X026266Y010834D01*
X026189Y010756D02*
X031422Y010756D01*
X030432Y010911D02*
X026344Y010911D01*
X026421Y010988D02*
X030355Y010988D01*
X030312Y011065D02*
X026498Y011065D01*
X026279Y011297D02*
X025694Y011297D01*
X025617Y011220D02*
X026202Y011220D01*
X026125Y011143D02*
X025540Y011143D01*
X025463Y011065D02*
X026047Y011065D01*
X025970Y010988D02*
X025385Y010988D01*
X025308Y010911D02*
X025893Y010911D01*
X025816Y010834D02*
X025231Y010834D01*
X025154Y010756D02*
X025738Y010756D01*
X025661Y010679D02*
X025077Y010679D01*
X024999Y010602D02*
X025584Y010602D01*
X025507Y010525D02*
X024922Y010525D01*
X024845Y010448D02*
X025429Y010448D01*
X025352Y010370D02*
X024768Y010370D01*
X024690Y010293D02*
X025275Y010293D01*
X025198Y010216D02*
X024613Y010216D01*
X024536Y010139D02*
X025121Y010139D01*
X025043Y010061D02*
X024459Y010061D01*
X024381Y009984D02*
X024966Y009984D01*
X024889Y009907D02*
X024304Y009907D01*
X024227Y009830D02*
X024812Y009830D01*
X024734Y009752D02*
X024150Y009752D01*
X024072Y009675D02*
X024657Y009675D01*
X024580Y009598D02*
X024044Y009598D01*
X024029Y009521D02*
X024503Y009521D01*
X024425Y009443D02*
X023952Y009443D01*
X023660Y009443D02*
X023384Y009443D01*
X023384Y009366D02*
X024348Y009366D01*
X024271Y009289D02*
X023384Y009289D01*
X023384Y009212D02*
X024194Y009212D01*
X024116Y009134D02*
X023384Y009134D01*
X023384Y009057D02*
X024039Y009057D01*
X023962Y008980D02*
X023883Y008980D01*
X023595Y008980D02*
X023384Y008980D01*
X023384Y008903D02*
X023446Y008903D01*
X023086Y008903D02*
X023031Y008903D01*
X023086Y008980D02*
X022902Y008980D01*
X022902Y009057D02*
X023086Y009057D01*
X023086Y009134D02*
X022902Y009134D01*
X022902Y009212D02*
X023086Y009212D01*
X023086Y009289D02*
X022880Y009289D01*
X022803Y009366D02*
X023086Y009366D01*
X023086Y009443D02*
X022726Y009443D01*
X022648Y009521D02*
X023086Y009521D01*
X023086Y009598D02*
X022571Y009598D01*
X022494Y009675D02*
X023086Y009675D01*
X023086Y009752D02*
X022417Y009752D01*
X022339Y009830D02*
X023086Y009830D01*
X023086Y009907D02*
X022262Y009907D01*
X022185Y009984D02*
X023086Y009984D01*
X023086Y010061D02*
X022108Y010061D01*
X022030Y010139D02*
X023086Y010139D01*
X023086Y010216D02*
X021953Y010216D01*
X021876Y010293D02*
X023086Y010293D01*
X023086Y010370D02*
X021799Y010370D01*
X021721Y010448D02*
X023086Y010448D01*
X023086Y010525D02*
X021644Y010525D01*
X021567Y010602D02*
X023086Y010602D01*
X023086Y010679D02*
X021490Y010679D01*
X021412Y010756D02*
X023086Y010756D01*
X023086Y010834D02*
X021335Y010834D01*
X021258Y010911D02*
X023086Y010911D01*
X023086Y010988D02*
X021181Y010988D01*
X021104Y011065D02*
X023086Y011065D01*
X023086Y011143D02*
X021091Y011143D01*
X021091Y011220D02*
X023086Y011220D01*
X023086Y011297D02*
X021091Y011297D01*
X021091Y011374D02*
X023086Y011374D01*
X023086Y011452D02*
X021091Y011452D01*
X021091Y011529D02*
X023086Y011529D01*
X023086Y011606D02*
X021091Y011606D01*
X021091Y011683D02*
X023086Y011683D01*
X023086Y011761D02*
X021091Y011761D01*
X021091Y011838D02*
X023086Y011838D01*
X023086Y011915D02*
X021091Y011915D01*
X021091Y011992D02*
X023086Y011992D01*
X023086Y012070D02*
X021091Y012070D01*
X021091Y012147D02*
X023086Y012147D01*
X023086Y012224D02*
X021091Y012224D01*
X021091Y012301D02*
X023086Y012301D01*
X023086Y012379D02*
X021091Y012379D01*
X021091Y012456D02*
X023060Y012456D01*
X022981Y012533D02*
X021091Y012533D01*
X021091Y012610D02*
X022902Y012610D01*
X022824Y012687D02*
X021091Y012687D01*
X021091Y012765D02*
X022745Y012765D01*
X022666Y012842D02*
X021091Y012842D01*
X021091Y012919D02*
X022587Y012919D01*
X022508Y012996D02*
X021091Y012996D01*
X021091Y013074D02*
X022429Y013074D01*
X022350Y013151D02*
X021091Y013151D01*
X021091Y013228D02*
X022158Y013228D01*
X022081Y013305D02*
X021091Y013305D01*
X021091Y013383D02*
X022072Y013383D01*
X022072Y013460D02*
X021091Y013460D01*
X021091Y013537D02*
X022097Y013537D01*
X022174Y013614D02*
X021091Y013614D01*
X021091Y013692D02*
X026652Y013692D01*
X026650Y013614D02*
X022445Y013614D01*
X022523Y013537D02*
X026669Y013537D01*
X026709Y013460D02*
X022548Y013460D01*
X022569Y013383D02*
X026784Y013383D01*
X026730Y013305D02*
X022648Y013305D01*
X022727Y013228D02*
X026698Y013228D01*
X026690Y013151D02*
X022806Y013151D01*
X022885Y013074D02*
X026697Y013074D01*
X026729Y012996D02*
X022964Y012996D01*
X023042Y012919D02*
X026788Y012919D01*
X026711Y012842D02*
X023121Y012842D01*
X023200Y012765D02*
X026670Y012765D01*
X026651Y012687D02*
X023279Y012687D01*
X023358Y012610D02*
X026651Y012610D01*
X026671Y012533D02*
X023394Y012533D01*
X023395Y012456D02*
X026712Y012456D01*
X026790Y012379D02*
X023384Y012379D01*
X023384Y012301D02*
X027859Y012301D01*
X027859Y012379D02*
X027588Y012379D01*
X027699Y012456D02*
X027859Y012456D01*
X027859Y012533D02*
X027748Y012533D01*
X027772Y012610D02*
X027859Y012610D01*
X027859Y012687D02*
X027772Y012687D01*
X027749Y012765D02*
X027859Y012765D01*
X027859Y012842D02*
X027701Y012842D01*
X027663Y012919D02*
X027854Y012919D01*
X028073Y013151D02*
X028253Y013151D01*
X028253Y013228D02*
X027996Y013228D01*
X027919Y013305D02*
X028253Y013305D01*
X028178Y013383D02*
X027660Y013383D01*
X027703Y013460D02*
X028101Y013460D01*
X028150Y013074D02*
X028253Y013074D01*
X028253Y012996D02*
X028178Y012996D01*
X028178Y012919D02*
X028253Y012919D01*
X028253Y012842D02*
X028178Y012842D01*
X028178Y012765D02*
X028253Y012765D01*
X028253Y012687D02*
X028178Y012687D01*
X028178Y012610D02*
X028253Y012610D01*
X028253Y012533D02*
X028178Y012533D01*
X028178Y012456D02*
X028253Y012456D01*
X028253Y012379D02*
X028178Y012379D01*
X028178Y012301D02*
X028253Y012301D01*
X028253Y012224D02*
X028178Y012224D01*
X028178Y012147D02*
X028253Y012147D01*
X028253Y012070D02*
X028120Y012070D01*
X028043Y011992D02*
X028253Y011992D01*
X028224Y011915D02*
X027966Y011915D01*
X028147Y011838D02*
X025290Y011838D01*
X025213Y011761D02*
X025707Y011761D01*
X025630Y011683D02*
X025136Y011683D01*
X025059Y011606D02*
X025553Y011606D01*
X025475Y011529D02*
X024981Y011529D01*
X024904Y011452D02*
X025398Y011452D01*
X025321Y011374D02*
X024827Y011374D01*
X024750Y011297D02*
X025244Y011297D01*
X025166Y011220D02*
X024672Y011220D01*
X024595Y011143D02*
X025089Y011143D01*
X025012Y011065D02*
X024518Y011065D01*
X024441Y010988D02*
X024935Y010988D01*
X024857Y010911D02*
X024363Y010911D01*
X024286Y010834D02*
X024780Y010834D01*
X024703Y010756D02*
X024209Y010756D01*
X024162Y010679D02*
X024626Y010679D01*
X024549Y010602D02*
X024162Y010602D01*
X024089Y010525D02*
X024471Y010525D01*
X024394Y010448D02*
X023384Y010448D01*
X023384Y010525D02*
X023759Y010525D01*
X023686Y010602D02*
X023384Y010602D01*
X023384Y010679D02*
X023686Y010679D01*
X023686Y010756D02*
X023384Y010756D01*
X023384Y010834D02*
X023724Y010834D01*
X023801Y010911D02*
X023384Y010911D01*
X023384Y010988D02*
X023990Y010988D01*
X024067Y011065D02*
X023384Y011065D01*
X023384Y011143D02*
X024144Y011143D01*
X024222Y011220D02*
X023384Y011220D01*
X023384Y011297D02*
X024299Y011297D01*
X024376Y011374D02*
X023384Y011374D01*
X023384Y011452D02*
X024453Y011452D01*
X024531Y011529D02*
X023384Y011529D01*
X023384Y011606D02*
X024608Y011606D01*
X024685Y011683D02*
X023384Y011683D01*
X023384Y011761D02*
X024762Y011761D01*
X024839Y011838D02*
X023384Y011838D01*
X023384Y011915D02*
X024917Y011915D01*
X024994Y011992D02*
X023384Y011992D01*
X023384Y012070D02*
X025071Y012070D01*
X025148Y012147D02*
X023384Y012147D01*
X023384Y012224D02*
X027824Y012224D01*
X027374Y012379D02*
X027172Y012379D01*
X027250Y012456D02*
X027263Y012456D01*
X027006Y012456D02*
X026956Y012456D01*
X026956Y012533D02*
X027006Y012533D01*
X027006Y012610D02*
X026956Y012610D01*
X026956Y012379D02*
X027006Y012379D01*
X028288Y011529D02*
X030333Y011529D01*
X030301Y011452D02*
X025849Y011452D01*
X025772Y011374D02*
X026356Y011374D01*
X026352Y010370D02*
X025803Y010370D01*
X025726Y010293D02*
X026275Y010293D01*
X026198Y010216D02*
X025649Y010216D01*
X025571Y010139D02*
X026121Y010139D01*
X026043Y010061D02*
X025494Y010061D01*
X025417Y009984D02*
X025966Y009984D01*
X025889Y009907D02*
X025340Y009907D01*
X025262Y009830D02*
X025812Y009830D01*
X025734Y009752D02*
X025185Y009752D01*
X025108Y009675D02*
X025657Y009675D01*
X025580Y009598D02*
X025031Y009598D01*
X024953Y009521D02*
X025503Y009521D01*
X025425Y009443D02*
X024876Y009443D01*
X024799Y009366D02*
X025348Y009366D01*
X025271Y009289D02*
X024722Y009289D01*
X024644Y009212D02*
X025194Y009212D01*
X025116Y009134D02*
X024567Y009134D01*
X024490Y009057D02*
X025039Y009057D01*
X024962Y008980D02*
X024883Y008980D01*
X024595Y008980D02*
X024413Y008980D01*
X024446Y008903D02*
X024335Y008903D01*
X024369Y008825D02*
X024258Y008825D01*
X024321Y008748D02*
X024181Y008748D01*
X024189Y008671D02*
X024289Y008671D01*
X024269Y008594D02*
X024208Y008594D01*
X024208Y008516D02*
X024269Y008516D01*
X024269Y008439D02*
X024208Y008439D01*
X024177Y008362D02*
X024301Y008362D01*
X024333Y008285D02*
X024145Y008285D01*
X024079Y008208D02*
X024399Y008208D01*
X024481Y008130D02*
X023997Y008130D01*
X023481Y008130D02*
X023392Y008130D01*
X023399Y008053D02*
X030563Y008053D01*
X030543Y008059D02*
X030620Y008035D01*
X030699Y008022D01*
X030699Y008022D01*
X030699Y008492D01*
X030229Y008492D01*
X030229Y008491D01*
X030242Y008412D01*
X030267Y008336D01*
X030303Y008265D01*
X030350Y008200D01*
X030407Y008143D01*
X030472Y008096D01*
X030543Y008059D01*
X030424Y008130D02*
X029997Y008130D01*
X030005Y008134D02*
X030137Y008266D01*
X030208Y008438D01*
X030208Y008625D01*
X030137Y008797D01*
X030005Y008929D01*
X029832Y009001D01*
X029645Y009001D01*
X029473Y008929D01*
X029341Y008797D01*
X029269Y008625D01*
X029269Y008438D01*
X029341Y008266D01*
X029473Y008134D01*
X029645Y008062D01*
X029832Y008062D01*
X030005Y008134D01*
X030079Y008208D02*
X030345Y008208D01*
X030293Y008285D02*
X030145Y008285D01*
X030177Y008362D02*
X030258Y008362D01*
X030238Y008439D02*
X030208Y008439D01*
X030208Y008516D02*
X030699Y008516D01*
X030699Y008492D02*
X030699Y008571D01*
X030229Y008571D01*
X030229Y008572D01*
X030242Y008651D01*
X030267Y008727D01*
X030303Y008798D01*
X030350Y008863D01*
X030407Y008920D01*
X030472Y008967D01*
X030543Y009004D01*
X030620Y009028D01*
X030699Y009041D01*
X030699Y009041D01*
X030699Y008571D01*
X030778Y008571D01*
X030778Y009041D01*
X030779Y009041D01*
X030858Y009028D01*
X030934Y009004D01*
X031006Y008967D01*
X031071Y008920D01*
X031127Y008863D01*
X031174Y008798D01*
X031211Y008727D01*
X031236Y008651D01*
X031248Y008572D01*
X031248Y008571D01*
X030778Y008571D01*
X030778Y008492D01*
X030778Y008022D01*
X030779Y008022D01*
X030858Y008035D01*
X030934Y008059D01*
X031006Y008096D01*
X031071Y008143D01*
X031127Y008200D01*
X031174Y008265D01*
X031211Y008336D01*
X031236Y008412D01*
X031248Y008491D01*
X031248Y008492D01*
X030778Y008492D01*
X030699Y008492D01*
X030699Y008439D02*
X030778Y008439D01*
X030778Y008362D02*
X030699Y008362D01*
X030699Y008285D02*
X030778Y008285D01*
X030778Y008208D02*
X030699Y008208D01*
X030699Y008130D02*
X030778Y008130D01*
X030778Y008053D02*
X030699Y008053D01*
X030915Y008053D02*
X031422Y008053D01*
X031422Y007976D02*
X023340Y007976D01*
X023280Y007899D02*
X031402Y007899D01*
X031422Y008130D02*
X031053Y008130D01*
X031133Y008208D02*
X031422Y008208D01*
X031422Y008285D02*
X031185Y008285D01*
X031219Y008362D02*
X031422Y008362D01*
X031422Y008439D02*
X031240Y008439D01*
X031245Y008594D02*
X031422Y008594D01*
X031422Y008671D02*
X031229Y008671D01*
X031200Y008748D02*
X031422Y008748D01*
X031422Y008825D02*
X031155Y008825D01*
X031088Y008903D02*
X031422Y008903D01*
X031422Y008980D02*
X030981Y008980D01*
X030778Y008980D02*
X030699Y008980D01*
X030699Y008903D02*
X030778Y008903D01*
X030778Y008825D02*
X030699Y008825D01*
X030699Y008748D02*
X030778Y008748D01*
X030778Y008671D02*
X030699Y008671D01*
X030699Y008594D02*
X030778Y008594D01*
X030778Y008516D02*
X031422Y008516D01*
X031422Y009057D02*
X025490Y009057D01*
X025413Y008980D02*
X025595Y008980D01*
X025645Y009001D02*
X025473Y008929D01*
X025341Y008797D01*
X025269Y008625D01*
X025269Y008438D01*
X025341Y008266D01*
X025473Y008134D01*
X025645Y008062D01*
X025832Y008062D01*
X026005Y008134D01*
X026137Y008266D01*
X026208Y008438D01*
X026208Y008625D01*
X026137Y008797D01*
X026005Y008929D01*
X025832Y009001D01*
X025645Y009001D01*
X025567Y009134D02*
X031422Y009134D01*
X031422Y009212D02*
X025644Y009212D01*
X025722Y009289D02*
X031422Y009289D01*
X031422Y009366D02*
X025799Y009366D01*
X025876Y009443D02*
X031422Y009443D01*
X031422Y009521D02*
X025953Y009521D01*
X026031Y009598D02*
X031422Y009598D01*
X031422Y009675D02*
X026108Y009675D01*
X026185Y009752D02*
X031422Y009752D01*
X030497Y008980D02*
X029883Y008980D01*
X030031Y008903D02*
X030390Y008903D01*
X030323Y008825D02*
X030109Y008825D01*
X030157Y008748D02*
X030278Y008748D01*
X030249Y008671D02*
X030189Y008671D01*
X030208Y008594D02*
X030233Y008594D01*
X029595Y008980D02*
X028883Y008980D01*
X028832Y009001D02*
X028645Y009001D01*
X028473Y008929D01*
X028341Y008797D01*
X028269Y008625D01*
X028269Y008438D01*
X028341Y008266D01*
X028473Y008134D01*
X028645Y008062D01*
X028832Y008062D01*
X029005Y008134D01*
X029137Y008266D01*
X029208Y008438D01*
X029208Y008625D01*
X029137Y008797D01*
X029005Y008929D01*
X028832Y009001D01*
X029031Y008903D02*
X029446Y008903D01*
X029369Y008825D02*
X029109Y008825D01*
X029157Y008748D02*
X029321Y008748D01*
X029289Y008671D02*
X029189Y008671D01*
X029208Y008594D02*
X029269Y008594D01*
X029269Y008516D02*
X029208Y008516D01*
X029208Y008439D02*
X029269Y008439D01*
X029301Y008362D02*
X029177Y008362D01*
X029145Y008285D02*
X029333Y008285D01*
X029399Y008208D02*
X029079Y008208D01*
X028997Y008130D02*
X029481Y008130D01*
X028481Y008130D02*
X027997Y008130D01*
X028005Y008134D02*
X028137Y008266D01*
X028208Y008438D01*
X028208Y008625D01*
X028137Y008797D01*
X028005Y008929D01*
X027832Y009001D01*
X027645Y009001D01*
X027473Y008929D01*
X027341Y008797D01*
X027269Y008625D01*
X027269Y008438D01*
X027341Y008266D01*
X027473Y008134D01*
X027645Y008062D01*
X027832Y008062D01*
X028005Y008134D01*
X028079Y008208D02*
X028399Y008208D01*
X028333Y008285D02*
X028145Y008285D01*
X028177Y008362D02*
X028301Y008362D01*
X028269Y008439D02*
X028208Y008439D01*
X028208Y008516D02*
X028269Y008516D01*
X028269Y008594D02*
X028208Y008594D01*
X028189Y008671D02*
X028289Y008671D01*
X028321Y008748D02*
X028157Y008748D01*
X028109Y008825D02*
X028369Y008825D01*
X028446Y008903D02*
X028031Y008903D01*
X027883Y008980D02*
X028595Y008980D01*
X027595Y008980D02*
X026883Y008980D01*
X026832Y009001D02*
X026645Y009001D01*
X026473Y008929D01*
X026341Y008797D01*
X026269Y008625D01*
X026269Y008438D01*
X026341Y008266D01*
X026473Y008134D01*
X026645Y008062D01*
X026832Y008062D01*
X027005Y008134D01*
X027137Y008266D01*
X027208Y008438D01*
X027208Y008625D01*
X027137Y008797D01*
X027005Y008929D01*
X026832Y009001D01*
X027031Y008903D02*
X027446Y008903D01*
X027369Y008825D02*
X027109Y008825D01*
X027157Y008748D02*
X027321Y008748D01*
X027289Y008671D02*
X027189Y008671D01*
X027208Y008594D02*
X027269Y008594D01*
X027269Y008516D02*
X027208Y008516D01*
X027208Y008439D02*
X027269Y008439D01*
X027301Y008362D02*
X027177Y008362D01*
X027145Y008285D02*
X027333Y008285D01*
X027399Y008208D02*
X027079Y008208D01*
X026997Y008130D02*
X027481Y008130D01*
X026481Y008130D02*
X025997Y008130D01*
X026079Y008208D02*
X026399Y008208D01*
X026333Y008285D02*
X026145Y008285D01*
X026177Y008362D02*
X026301Y008362D01*
X026269Y008439D02*
X026208Y008439D01*
X026208Y008516D02*
X026269Y008516D01*
X026269Y008594D02*
X026208Y008594D01*
X026189Y008671D02*
X026289Y008671D01*
X026321Y008748D02*
X026157Y008748D01*
X026109Y008825D02*
X026369Y008825D01*
X026446Y008903D02*
X026031Y008903D01*
X025883Y008980D02*
X026595Y008980D01*
X025446Y008903D02*
X025335Y008903D01*
X025369Y008825D02*
X025258Y008825D01*
X025321Y008748D02*
X025181Y008748D01*
X025189Y008671D02*
X025289Y008671D01*
X025269Y008594D02*
X025208Y008594D01*
X025208Y008516D02*
X025269Y008516D01*
X025269Y008439D02*
X025208Y008439D01*
X025177Y008362D02*
X025301Y008362D01*
X025333Y008285D02*
X025145Y008285D01*
X025079Y008208D02*
X025399Y008208D01*
X025481Y008130D02*
X024997Y008130D01*
X023399Y008208D02*
X023384Y008208D01*
X023384Y009521D02*
X023582Y009521D01*
X023568Y009598D02*
X023384Y009598D01*
X023384Y009675D02*
X023568Y009675D01*
X023588Y009752D02*
X023384Y009752D01*
X023384Y009830D02*
X023665Y009830D01*
X023853Y009907D02*
X023384Y009907D01*
X023384Y009984D02*
X023931Y009984D01*
X024008Y010061D02*
X023384Y010061D01*
X023384Y010139D02*
X024085Y010139D01*
X024162Y010216D02*
X023384Y010216D01*
X023384Y010293D02*
X024240Y010293D01*
X024317Y010370D02*
X023384Y010370D01*
X019591Y013151D02*
X019553Y013151D01*
X018587Y012379D02*
X016437Y012379D01*
X016514Y012301D02*
X018587Y012301D01*
X018587Y012224D02*
X016524Y012224D01*
X016524Y012147D02*
X018587Y012147D01*
X018587Y012070D02*
X016499Y012070D01*
X016465Y011992D02*
X018544Y011992D01*
X018528Y011915D02*
X016465Y011915D01*
X016465Y011838D02*
X018528Y011838D01*
X018547Y011761D02*
X016465Y011761D01*
X016465Y011683D02*
X018624Y011683D01*
X021091Y013769D02*
X026672Y013769D01*
X026714Y013846D02*
X021091Y013846D01*
X021091Y013923D02*
X026739Y013923D01*
X026684Y014001D02*
X021091Y014001D01*
X021091Y014078D02*
X026657Y014078D01*
X026660Y014232D02*
X021091Y014232D01*
X021091Y014155D02*
X026956Y014155D01*
X026956Y014125D02*
X027006Y014125D01*
X027006Y013818D01*
X027006Y013674D01*
X026956Y013674D01*
X026956Y014125D01*
X026956Y014078D02*
X027006Y014078D01*
X027006Y014001D02*
X026956Y014001D01*
X026956Y013923D02*
X027006Y013923D01*
X027006Y013846D02*
X026956Y013846D01*
X026956Y013769D02*
X027006Y013769D01*
X027006Y013692D02*
X026956Y013692D01*
X026689Y014310D02*
X021091Y014310D01*
X021091Y014387D02*
X026719Y014387D01*
X026690Y014464D02*
X021091Y014464D01*
X021091Y014541D02*
X026690Y014541D01*
X026690Y014618D02*
X021091Y014618D01*
X021091Y014696D02*
X026690Y014696D01*
X026690Y014773D02*
X021091Y014773D01*
X021091Y014850D02*
X026690Y014850D01*
X026734Y014927D02*
X021091Y014927D01*
X021091Y015005D02*
X026822Y015005D01*
X026822Y015082D02*
X021091Y015082D01*
X021091Y015159D02*
X026822Y015159D01*
X026822Y015236D02*
X021091Y015236D01*
X021091Y015314D02*
X026822Y015314D01*
X026822Y015391D02*
X021091Y015391D01*
X021091Y015468D02*
X026822Y015468D01*
X026822Y015545D02*
X021091Y015545D01*
X021091Y015623D02*
X026822Y015623D01*
X026822Y015700D02*
X021091Y015700D01*
X021091Y015777D02*
X026807Y015777D01*
X026730Y015854D02*
X024398Y015854D01*
X024476Y015932D02*
X026653Y015932D01*
X026872Y016163D02*
X027229Y016163D01*
X027229Y016086D02*
X026949Y016086D01*
X027026Y016009D02*
X027229Y016009D01*
X027229Y015932D02*
X027104Y015932D01*
X027140Y015854D02*
X027229Y015854D01*
X027229Y015777D02*
X027140Y015777D01*
X027140Y015700D02*
X027229Y015700D01*
X027229Y015623D02*
X027140Y015623D01*
X027140Y015545D02*
X027229Y015545D01*
X027229Y015468D02*
X027140Y015468D01*
X027140Y015391D02*
X027229Y015391D01*
X027229Y015314D02*
X027140Y015314D01*
X027140Y015236D02*
X027229Y015236D01*
X027229Y015159D02*
X027140Y015159D01*
X027140Y015082D02*
X027229Y015082D01*
X027229Y015005D02*
X027140Y015005D01*
X027228Y014927D02*
X027229Y014927D01*
X027171Y016241D02*
X026795Y016241D01*
X027016Y016395D02*
X020753Y016395D01*
X020676Y016318D02*
X027093Y016318D01*
X024111Y016241D02*
X020598Y016241D01*
X020521Y016163D02*
X024034Y016163D01*
X024030Y016086D02*
X020847Y016086D01*
X020924Y016009D02*
X024030Y016009D01*
X024061Y015932D02*
X021001Y015932D01*
X021078Y015854D02*
X024138Y015854D01*
X022984Y017245D02*
X018177Y017245D01*
X018138Y017013D02*
X020389Y017013D01*
X020311Y016936D02*
X018138Y016936D01*
X018138Y016858D02*
X020234Y016858D01*
X020157Y016781D02*
X018138Y016781D01*
X018138Y016704D02*
X020080Y016704D01*
X020002Y016627D02*
X018138Y016627D01*
X018138Y016550D02*
X019925Y016550D01*
X019848Y016472D02*
X018138Y016472D01*
X018138Y016395D02*
X019771Y016395D01*
X019693Y016318D02*
X018138Y016318D01*
X018138Y016241D02*
X019505Y016241D01*
X019434Y016163D02*
X019109Y016163D01*
X019186Y016086D02*
X019434Y016086D01*
X019434Y016009D02*
X019201Y016009D01*
X018817Y016163D02*
X018138Y016163D01*
X018138Y016086D02*
X018740Y016086D01*
X018725Y016009D02*
X018138Y016009D01*
X018138Y015932D02*
X018725Y015932D01*
X018587Y015854D02*
X018138Y015854D01*
X018138Y015777D02*
X018510Y015777D01*
X018489Y015700D02*
X018138Y015700D01*
X018138Y015623D02*
X018489Y015623D01*
X018502Y015545D02*
X018138Y015545D01*
X018138Y015468D02*
X018580Y015468D01*
X018765Y015391D02*
X018138Y015391D01*
X018138Y015314D02*
X018773Y015314D01*
X018851Y015236D02*
X018138Y015236D01*
X018138Y015159D02*
X019079Y015159D01*
X018838Y015082D02*
X018138Y015082D01*
X018138Y015005D02*
X018765Y015005D01*
X018765Y014927D02*
X018138Y014927D01*
X018138Y014850D02*
X018607Y014850D01*
X018529Y014773D02*
X018138Y014773D01*
X018138Y014696D02*
X018489Y014696D01*
X018489Y014618D02*
X018138Y014618D01*
X018138Y014541D02*
X018298Y014541D01*
X018220Y014464D02*
X018138Y014464D01*
X018138Y014387D02*
X018213Y014387D01*
X018213Y014310D02*
X018138Y014310D01*
X018212Y014232D02*
X018241Y014232D01*
X017993Y014001D02*
X013828Y014001D01*
X013828Y014078D02*
X017916Y014078D01*
X017839Y014155D02*
X013828Y014155D01*
X013828Y014232D02*
X017820Y014232D01*
X017820Y014310D02*
X013828Y014310D01*
X013828Y014387D02*
X017820Y014387D01*
X017820Y014464D02*
X013828Y014464D01*
X013828Y014541D02*
X017820Y014541D01*
X017820Y014618D02*
X013828Y014618D01*
X013828Y014696D02*
X017820Y014696D01*
X017820Y014773D02*
X013828Y014773D01*
X013828Y014850D02*
X017820Y014850D01*
X017820Y014927D02*
X013828Y014927D01*
X013828Y015005D02*
X017820Y015005D01*
X017820Y015082D02*
X013828Y015082D01*
X013828Y015159D02*
X017820Y015159D01*
X017820Y015236D02*
X013828Y015236D01*
X013828Y015314D02*
X017820Y015314D01*
X017820Y015391D02*
X013828Y015391D01*
X013828Y015468D02*
X017820Y015468D01*
X017820Y015545D02*
X013828Y015545D01*
X013828Y015623D02*
X017820Y015623D01*
X017820Y015700D02*
X013828Y015700D01*
X013828Y015777D02*
X017820Y015777D01*
X017820Y015854D02*
X013828Y015854D01*
X013828Y015932D02*
X017820Y015932D01*
X017820Y016009D02*
X013828Y016009D01*
X013828Y016086D02*
X017820Y016086D01*
X017820Y016163D02*
X013828Y016163D01*
X013828Y016241D02*
X017820Y016241D01*
X017820Y016318D02*
X013828Y016318D01*
X013828Y016395D02*
X017820Y016395D01*
X017820Y016472D02*
X013828Y016472D01*
X013828Y016550D02*
X017820Y016550D01*
X017820Y016627D02*
X013828Y016627D01*
X013828Y016704D02*
X017820Y016704D01*
X017820Y016781D02*
X013828Y016781D01*
X013828Y016858D02*
X017820Y016858D01*
X017820Y016936D02*
X013828Y016936D01*
X013828Y017013D02*
X017820Y017013D01*
X017820Y017090D02*
X013828Y017090D01*
X013828Y017167D02*
X017820Y017167D01*
X017820Y017245D02*
X013828Y017245D01*
X013828Y017322D02*
X017820Y017322D01*
X017881Y017399D02*
X013828Y017399D01*
X013828Y017476D02*
X017958Y017476D01*
X018036Y017554D02*
X013834Y017554D01*
X013886Y017631D02*
X022923Y017631D01*
X020702Y016086D02*
X020444Y016086D01*
X018070Y013923D02*
X013828Y013923D01*
X013924Y011297D02*
X014003Y011297D01*
X014003Y011220D02*
X013924Y011220D01*
X013924Y011143D02*
X014003Y011143D01*
X014003Y011065D02*
X013924Y011065D01*
X013924Y010988D02*
X014003Y010988D01*
X013911Y009521D02*
X012017Y009521D01*
X012016Y009443D02*
X013834Y009443D01*
X013757Y009366D02*
X012016Y009366D01*
X012016Y009289D02*
X013680Y009289D01*
X013602Y009212D02*
X012016Y009212D01*
X012016Y009134D02*
X013559Y009134D01*
X013559Y009057D02*
X012016Y009057D01*
X012016Y008980D02*
X012497Y008980D01*
X012390Y008903D02*
X012016Y008903D01*
X012016Y008825D02*
X012323Y008825D01*
X012278Y008748D02*
X012016Y008748D01*
X012016Y008671D02*
X012249Y008671D01*
X012233Y008594D02*
X012016Y008594D01*
X012699Y008594D02*
X012778Y008594D01*
X012778Y008671D02*
X012699Y008671D01*
X012699Y008748D02*
X012778Y008748D01*
X012778Y008825D02*
X012699Y008825D01*
X012699Y008903D02*
X012778Y008903D01*
X012778Y008980D02*
X012699Y008980D01*
X012981Y008980D02*
X013559Y008980D01*
X013446Y008903D02*
X013088Y008903D01*
X013155Y008825D02*
X013369Y008825D01*
X013321Y008748D02*
X013200Y008748D01*
X013229Y008671D02*
X013289Y008671D01*
X013269Y008594D02*
X013245Y008594D01*
X013269Y008516D02*
X012778Y008516D01*
X013219Y008362D02*
X013301Y008362D01*
X013269Y008439D02*
X013240Y008439D01*
X013185Y008285D02*
X013333Y008285D01*
X013399Y008208D02*
X013133Y008208D01*
X013053Y008130D02*
X013481Y008130D01*
X013955Y009057D02*
X016599Y009057D01*
X016624Y009134D02*
X014032Y009134D01*
X014110Y009212D02*
X016702Y009212D01*
X028366Y011606D02*
X030406Y011606D01*
X030502Y011683D02*
X028443Y011683D01*
X028520Y011761D02*
X031422Y011761D01*
X031422Y012301D02*
X030774Y012301D01*
X030774Y012224D02*
X030696Y012224D01*
X030696Y012232D02*
X030696Y011762D01*
X030695Y011762D01*
X030616Y011775D01*
X030539Y011800D01*
X030468Y011836D01*
X030403Y011883D01*
X030346Y011940D01*
X030299Y012005D01*
X030263Y012076D01*
X030238Y012152D01*
X030226Y012232D01*
X030226Y012232D01*
X030696Y012232D01*
X030696Y012301D02*
X028571Y012301D01*
X028571Y012224D02*
X030227Y012224D01*
X030240Y012147D02*
X028571Y012147D01*
X028571Y012070D02*
X030266Y012070D01*
X030308Y011992D02*
X028571Y011992D01*
X028571Y011915D02*
X030371Y011915D01*
X030465Y011838D02*
X028571Y011838D01*
X028571Y012379D02*
X030236Y012379D01*
X030259Y012456D02*
X028571Y012456D01*
X028571Y012533D02*
X030296Y012533D01*
X030353Y012610D02*
X028571Y012610D01*
X028571Y012687D02*
X030441Y012687D01*
X030696Y012687D02*
X030774Y012687D01*
X030774Y012610D02*
X030696Y012610D01*
X030696Y012533D02*
X030774Y012533D01*
X030774Y012456D02*
X030696Y012456D01*
X030696Y012379D02*
X030774Y012379D01*
X030774Y012147D02*
X030696Y012147D01*
X030696Y012070D02*
X030774Y012070D01*
X030774Y011992D02*
X030696Y011992D01*
X030696Y011915D02*
X030774Y011915D01*
X030774Y011838D02*
X030696Y011838D01*
D15*
X028806Y010854D03*
X029475Y009870D03*
X023924Y010697D03*
X023885Y011406D03*
X023806Y009634D03*
X018766Y011878D03*
X019436Y013370D03*
X018924Y013650D03*
X018451Y014358D03*
X018727Y014634D03*
X019003Y014909D03*
X019318Y015224D03*
X019003Y015421D03*
X018727Y015657D03*
X018963Y015972D03*
X019672Y016071D03*
X020066Y016071D03*
X021404Y016169D03*
X021404Y015815D03*
X021404Y015461D03*
X021759Y015461D03*
X022113Y015461D03*
X022113Y015815D03*
X022467Y015815D03*
X022467Y016169D03*
X022113Y016169D03*
X021759Y016169D03*
X021759Y015815D03*
X022467Y015461D03*
X022822Y015461D03*
X022822Y015815D03*
X022822Y016169D03*
X024268Y016061D03*
X022822Y015106D03*
X022822Y014752D03*
X022467Y014752D03*
X022113Y014752D03*
X022113Y015106D03*
X022467Y015106D03*
X021759Y015106D03*
X021759Y014752D03*
X021404Y014752D03*
X021404Y015106D03*
X022310Y013413D03*
X021325Y013177D03*
X017113Y015382D03*
X014514Y014437D03*
X014278Y014673D03*
X014042Y014909D03*
X013058Y013335D03*
X016286Y012193D03*
X015223Y009437D03*
X013097Y016720D03*
X013097Y017232D03*
X013648Y017705D03*
X012117Y018374D03*
X014633Y018965D03*
X015814Y018965D03*
X016207Y018965D03*
X016601Y018965D03*
X016995Y018965D03*
X017388Y018965D03*
X017782Y018965D03*
X018176Y018965D03*
X018963Y018965D03*
X019357Y018965D03*
X019751Y018965D03*
X020144Y018965D03*
X020538Y018965D03*
X020932Y018965D03*
X022507Y018965D03*
X022900Y018965D03*
X023294Y018965D03*
X023688Y018965D03*
X024081Y018965D03*
X025459Y018965D03*
X025853Y018965D03*
X027231Y018965D03*
X027625Y018965D03*
X028018Y018965D03*
X028412Y018965D03*
X028806Y018965D03*
X029199Y018965D03*
X029593Y018965D03*
X029987Y018965D03*
X030381Y018965D03*
X030774Y018965D03*
X031168Y018965D03*
X029593Y016799D03*
X023097Y017469D03*
D16*
X018924Y013650D02*
X018766Y013453D01*
X018766Y011878D01*
X016286Y011642D02*
X016286Y012193D01*
X016286Y011642D02*
X013739Y009094D01*
X013739Y008531D01*
X013963Y011801D02*
X013648Y011919D01*
X013648Y017705D01*
D17*
X017979Y017272D02*
X017979Y014240D01*
X018176Y014043D01*
X019160Y014043D01*
X019357Y013846D01*
X019357Y013453D01*
X019436Y013370D01*
X019751Y014240D02*
X019751Y012035D01*
X016759Y009043D01*
X016759Y008551D01*
X016739Y008531D01*
X016325Y007980D02*
X015774Y008531D01*
X015739Y008531D01*
X016325Y007980D02*
X023136Y007980D01*
X023235Y008098D01*
X022743Y008535D02*
X022739Y008531D01*
X022743Y008535D02*
X022743Y009201D01*
X020932Y011012D01*
X020932Y015776D01*
X020774Y015933D01*
X020617Y015697D02*
X020735Y015579D01*
X020735Y010028D01*
X021719Y009043D01*
X021719Y008551D01*
X021739Y008531D01*
X020739Y008531D02*
X020735Y008535D01*
X020735Y009043D01*
X020538Y009240D01*
X020538Y015224D01*
X020262Y015500D01*
X020105Y015224D02*
X020341Y014988D01*
X020341Y009673D01*
X019711Y009043D01*
X019711Y008559D01*
X019739Y008531D01*
X018739Y008531D02*
X018727Y008543D01*
X018727Y009004D01*
X020144Y010421D01*
X020144Y014752D01*
X019987Y014909D01*
X019003Y014909D01*
X018727Y014634D02*
X019790Y014634D01*
X019948Y014476D01*
X019948Y011209D01*
X017743Y009004D01*
X017743Y008535D01*
X017739Y008531D01*
X023739Y008531D02*
X026479Y011272D01*
X030735Y011272D01*
X030735Y010272D02*
X026479Y010272D01*
X024739Y008531D01*
X023806Y009634D02*
X025814Y011642D01*
X028176Y011642D01*
X028412Y011878D01*
X028412Y013374D01*
X028136Y013650D01*
X027481Y013650D01*
X027481Y014150D02*
X027613Y014150D01*
X027900Y014437D01*
X027900Y016130D01*
X027152Y016878D01*
X020479Y016878D01*
X019672Y016071D01*
X020105Y016130D02*
X020262Y016130D01*
X020735Y016602D01*
X027034Y016602D01*
X027388Y016248D01*
X027388Y014742D01*
X027481Y014650D01*
X026981Y014650D02*
X026981Y015829D01*
X026680Y016130D01*
X024337Y016130D01*
X024268Y016061D01*
X023097Y017469D02*
X018176Y017469D01*
X017979Y017272D01*
X019318Y015224D02*
X020105Y015224D01*
X019633Y014358D02*
X018451Y014358D01*
X019633Y014358D02*
X019751Y014240D01*
X022310Y013413D02*
X023235Y012508D01*
X023924Y010697D02*
X025262Y012035D01*
X027861Y012035D01*
X028018Y012193D01*
X028018Y012980D01*
X027849Y013150D01*
X027481Y013150D01*
D18*
X023235Y012508D02*
X023235Y008098D01*
X019042Y015421D02*
X019003Y015421D01*
X019042Y015421D02*
X019121Y015500D01*
X020262Y015500D01*
X020617Y015697D02*
X018766Y015697D01*
X018727Y015657D01*
X020066Y016071D02*
X020066Y016091D01*
X020105Y016130D01*
X020420Y015933D02*
X020774Y015933D01*
D19*
X020420Y015933D02*
X020341Y015839D01*
X019081Y015839D01*
X018963Y015972D01*
X019672Y016071D02*
X019751Y016130D01*
M02*
