G75*
%MOIN*%
%OFA0B0*%
%FSLAX24Y24*%
%IPPOS*%
%LPD*%
%AMOC8*
5,1,8,0,0,1.08239X$1,22.5*
%
%ADD10C,0.0000*%
%ADD11C,0.0040*%
%ADD12C,0.0020*%
%ADD13C,0.0050*%
%ADD14C,0.0060*%
%ADD15C,0.0080*%
%ADD16C,0.0070*%
%ADD17R,0.0098X0.0098*%
%ADD18C,0.0143*%
%ADD19C,0.0030*%
D10*
X011877Y007941D02*
X011877Y009516D01*
X011876Y009516D02*
X011878Y009542D01*
X011883Y009567D01*
X011891Y009591D01*
X011902Y009615D01*
X011917Y009636D01*
X011934Y009655D01*
X011953Y009672D01*
X011975Y009687D01*
X011998Y009698D01*
X012022Y009706D01*
X012047Y009711D01*
X012073Y009713D01*
X012703Y009713D01*
X012703Y009712D02*
X012729Y009714D01*
X012754Y009719D01*
X012778Y009727D01*
X012802Y009738D01*
X012823Y009753D01*
X012842Y009770D01*
X012859Y009789D01*
X012874Y009811D01*
X012885Y009834D01*
X012893Y009858D01*
X012898Y009883D01*
X012900Y009909D01*
X012900Y012665D01*
X012901Y012691D01*
X012898Y012716D01*
X012892Y012741D01*
X012882Y012764D01*
X012870Y012786D01*
X012854Y012806D01*
X012835Y012823D01*
X012814Y012838D01*
X012792Y012849D01*
X012768Y012857D01*
X012743Y012862D01*
X012073Y012862D01*
X012047Y012864D01*
X012022Y012869D01*
X011998Y012877D01*
X011975Y012888D01*
X011953Y012903D01*
X011934Y012920D01*
X011917Y012939D01*
X011902Y012961D01*
X011891Y012984D01*
X011883Y013008D01*
X011878Y013033D01*
X011876Y013059D01*
X011877Y013059D02*
X011877Y023098D01*
X011876Y023098D02*
X011878Y023137D01*
X011884Y023175D01*
X011893Y023212D01*
X011906Y023249D01*
X011923Y023284D01*
X011942Y023317D01*
X011965Y023348D01*
X011991Y023377D01*
X012020Y023403D01*
X012051Y023426D01*
X012084Y023445D01*
X012119Y023462D01*
X012156Y023475D01*
X012193Y023484D01*
X012231Y023490D01*
X012270Y023492D01*
X031168Y023492D01*
X031207Y023490D01*
X031245Y023484D01*
X031282Y023475D01*
X031319Y023462D01*
X031354Y023445D01*
X031387Y023426D01*
X031418Y023403D01*
X031447Y023377D01*
X031473Y023348D01*
X031496Y023317D01*
X031515Y023284D01*
X031532Y023249D01*
X031545Y023212D01*
X031554Y023175D01*
X031560Y023137D01*
X031562Y023098D01*
X031562Y007941D01*
X031560Y007915D01*
X031555Y007890D01*
X031547Y007866D01*
X031536Y007843D01*
X031521Y007821D01*
X031504Y007802D01*
X031485Y007785D01*
X031464Y007770D01*
X031440Y007759D01*
X031416Y007751D01*
X031391Y007746D01*
X031365Y007744D01*
X012073Y007744D01*
X012047Y007746D01*
X012022Y007751D01*
X011998Y007759D01*
X011975Y007770D01*
X011953Y007785D01*
X011934Y007802D01*
X011917Y007821D01*
X011902Y007843D01*
X011891Y007866D01*
X011883Y007890D01*
X011878Y007915D01*
X011876Y007941D01*
D11*
X016700Y012213D02*
X016800Y012213D01*
X016833Y012246D01*
X016833Y012280D01*
X016800Y012313D01*
X016700Y012313D01*
X016800Y012313D02*
X016833Y012346D01*
X016833Y012380D01*
X016800Y012413D01*
X016700Y012413D01*
X016700Y012213D01*
X016921Y012213D02*
X016921Y012346D01*
X016988Y012413D01*
X017054Y012346D01*
X017054Y012213D01*
X017054Y012313D02*
X016921Y012313D01*
X017142Y012413D02*
X017275Y012413D01*
X017208Y012413D02*
X017208Y012213D01*
X017363Y012213D02*
X017496Y012413D01*
X017584Y012413D02*
X017584Y012246D01*
X017617Y012213D01*
X017684Y012213D01*
X017717Y012246D01*
X017717Y012413D01*
X017805Y012380D02*
X017805Y012346D01*
X017838Y012313D01*
X017905Y012313D01*
X017938Y012280D01*
X017938Y012246D01*
X017905Y012213D01*
X017838Y012213D01*
X017805Y012246D01*
X017805Y012380D02*
X017838Y012413D01*
X017905Y012413D01*
X017938Y012380D01*
X018026Y012413D02*
X018126Y012413D01*
X018159Y012380D01*
X018159Y012346D01*
X018126Y012313D01*
X018026Y012313D01*
X018126Y012313D02*
X018159Y012280D01*
X018159Y012246D01*
X018126Y012213D01*
X018026Y012213D01*
X018026Y012413D01*
X016674Y013083D02*
X016674Y013543D01*
X016521Y013543D02*
X016828Y013543D01*
X016367Y013467D02*
X016291Y013543D01*
X016137Y013543D01*
X016061Y013467D01*
X016061Y013390D01*
X016137Y013313D01*
X016291Y013313D01*
X016367Y013236D01*
X016367Y013160D01*
X016291Y013083D01*
X016137Y013083D01*
X016061Y013160D01*
X015830Y013160D02*
X015830Y013543D01*
X015754Y013543D02*
X015907Y013543D01*
X015830Y013160D02*
X015754Y013083D01*
X015677Y013083D01*
X015600Y013160D01*
X015447Y013006D02*
X015140Y013006D01*
X014833Y013083D02*
X014833Y013543D01*
X014986Y013543D02*
X014679Y013543D01*
X014526Y013543D02*
X014219Y013543D01*
X014372Y013543D02*
X014372Y013083D01*
X014066Y013083D02*
X014066Y013390D01*
X013912Y013543D01*
X013759Y013390D01*
X013759Y013083D01*
X013605Y013160D02*
X013528Y013083D01*
X013298Y013083D01*
X013298Y013543D01*
X013528Y013543D01*
X013605Y013467D01*
X013605Y013390D01*
X013528Y013313D01*
X013298Y013313D01*
X013528Y013313D02*
X013605Y013236D01*
X013605Y013160D01*
X013759Y013313D02*
X014066Y013313D01*
X017362Y017785D02*
X017482Y017785D01*
X017542Y017845D01*
X017670Y017785D02*
X017911Y017785D01*
X017791Y017785D02*
X017791Y018145D01*
X017670Y018025D01*
X017542Y018085D02*
X017482Y018145D01*
X017362Y018145D01*
X017302Y018085D01*
X017302Y017845D01*
X017362Y017785D01*
X018039Y017845D02*
X018039Y017965D01*
X018219Y017965D01*
X018279Y017905D01*
X018279Y017845D01*
X018219Y017785D01*
X018099Y017785D01*
X018039Y017845D01*
X018039Y017965D02*
X018159Y018085D01*
X018279Y018145D01*
X018900Y018404D02*
X018900Y018864D01*
X019130Y018864D01*
X019207Y018788D01*
X019207Y018634D01*
X019130Y018558D01*
X018900Y018558D01*
X019053Y018558D02*
X019207Y018404D01*
X019360Y018404D02*
X019667Y018404D01*
X019514Y018404D02*
X019514Y018864D01*
X019360Y018711D01*
X026450Y014775D02*
X026450Y014525D01*
X026700Y014650D01*
X026450Y014775D01*
X026450Y014751D02*
X026497Y014751D01*
X026450Y014713D02*
X026574Y014713D01*
X026651Y014674D02*
X026450Y014674D01*
X026450Y014636D02*
X026672Y014636D01*
X026595Y014597D02*
X026450Y014597D01*
X026450Y014559D02*
X026518Y014559D01*
X031223Y012519D02*
X031223Y012419D01*
X031424Y012419D01*
X031424Y012519D01*
X031390Y012552D01*
X031257Y012552D01*
X031223Y012519D01*
X031223Y012331D02*
X031424Y012331D01*
X031223Y012198D01*
X031424Y012198D01*
X031390Y012110D02*
X031323Y012110D01*
X031323Y012043D01*
X031257Y011977D02*
X031223Y012010D01*
X031223Y012077D01*
X031257Y012110D01*
X031390Y012110D02*
X031424Y012077D01*
X031424Y012010D01*
X031390Y011977D01*
X031257Y011977D01*
X031223Y011501D02*
X031223Y011434D01*
X031223Y011468D02*
X031424Y011468D01*
X031424Y011501D02*
X031424Y011434D01*
X031424Y011347D02*
X031223Y011213D01*
X031257Y011126D02*
X031323Y011126D01*
X031357Y011093D01*
X031357Y010992D01*
X031424Y010992D02*
X031223Y010992D01*
X031223Y011093D01*
X031257Y011126D01*
X031357Y011059D02*
X031424Y011126D01*
X031424Y011213D02*
X031223Y011347D01*
X031257Y010544D02*
X031223Y010511D01*
X031223Y010444D01*
X031257Y010411D01*
X031390Y010411D01*
X031424Y010444D01*
X031424Y010511D01*
X031390Y010544D01*
X031257Y010544D01*
X031223Y010323D02*
X031424Y010190D01*
X031424Y010323D02*
X031223Y010190D01*
X031223Y010102D02*
X031223Y009969D01*
X031223Y010036D02*
X031424Y010036D01*
D12*
X030843Y009566D02*
X030806Y009603D01*
X030660Y009603D01*
X030623Y009566D01*
X030623Y009456D01*
X030843Y009456D01*
X030843Y009566D01*
X030843Y009382D02*
X030623Y009382D01*
X030623Y009235D02*
X030843Y009382D01*
X030843Y009235D02*
X030623Y009235D01*
X030660Y009161D02*
X030623Y009124D01*
X030623Y009051D01*
X030660Y009014D01*
X030806Y009014D01*
X030843Y009051D01*
X030843Y009124D01*
X030806Y009161D01*
X030733Y009161D01*
X030733Y009087D01*
X029859Y009196D02*
X029712Y009196D01*
X029639Y009269D01*
X029712Y009342D01*
X029859Y009342D01*
X029822Y009417D02*
X029859Y009453D01*
X029859Y009527D01*
X029822Y009563D01*
X029785Y009563D01*
X029749Y009527D01*
X029749Y009417D01*
X029822Y009417D01*
X029749Y009417D02*
X029675Y009490D01*
X029639Y009563D01*
X029749Y009342D02*
X029749Y009196D01*
X029749Y009121D02*
X029785Y009085D01*
X029785Y008975D01*
X029859Y008975D02*
X029639Y008975D01*
X029639Y009085D01*
X029675Y009121D01*
X029749Y009121D01*
X028835Y009196D02*
X028688Y009196D01*
X028615Y009269D01*
X028688Y009342D01*
X028835Y009342D01*
X028798Y009417D02*
X028835Y009453D01*
X028835Y009527D01*
X028798Y009563D01*
X028725Y009563D01*
X028688Y009527D01*
X028688Y009490D01*
X028725Y009417D01*
X028615Y009417D01*
X028615Y009563D01*
X028725Y009342D02*
X028725Y009196D01*
X028725Y009121D02*
X028762Y009085D01*
X028762Y008975D01*
X028835Y008975D02*
X028615Y008975D01*
X028615Y009085D01*
X028652Y009121D01*
X028725Y009121D01*
X027851Y009196D02*
X027704Y009196D01*
X027631Y009269D01*
X027704Y009342D01*
X027851Y009342D01*
X027741Y009342D02*
X027741Y009196D01*
X027741Y009121D02*
X027777Y009085D01*
X027777Y008975D01*
X027851Y008975D02*
X027631Y008975D01*
X027631Y009085D01*
X027667Y009121D01*
X027741Y009121D01*
X027741Y009417D02*
X027741Y009563D01*
X027851Y009527D02*
X027631Y009527D01*
X027741Y009417D01*
X026867Y009453D02*
X026830Y009417D01*
X026867Y009453D02*
X026867Y009527D01*
X026830Y009563D01*
X026793Y009563D01*
X026757Y009527D01*
X026757Y009490D01*
X026757Y009527D02*
X026720Y009563D01*
X026683Y009563D01*
X026646Y009527D01*
X026646Y009453D01*
X026683Y009417D01*
X026720Y009342D02*
X026867Y009342D01*
X026757Y009342D02*
X026757Y009196D01*
X026720Y009196D02*
X026646Y009269D01*
X026720Y009342D01*
X026720Y009196D02*
X026867Y009196D01*
X026757Y009121D02*
X026793Y009085D01*
X026793Y008975D01*
X026867Y008975D02*
X026646Y008975D01*
X026646Y009085D01*
X026683Y009121D01*
X026757Y009121D01*
X025843Y009196D02*
X025696Y009196D01*
X025623Y009269D01*
X025696Y009342D01*
X025843Y009342D01*
X025843Y009417D02*
X025696Y009563D01*
X025660Y009563D01*
X025623Y009527D01*
X025623Y009453D01*
X025660Y009417D01*
X025733Y009342D02*
X025733Y009196D01*
X025733Y009121D02*
X025770Y009085D01*
X025770Y008975D01*
X025843Y008975D02*
X025623Y008975D01*
X025623Y009085D01*
X025660Y009121D01*
X025733Y009121D01*
X025843Y009417D02*
X025843Y009563D01*
X024819Y009563D02*
X024819Y009417D01*
X024819Y009490D02*
X024599Y009490D01*
X024673Y009417D01*
X024673Y009342D02*
X024819Y009342D01*
X024709Y009342D02*
X024709Y009196D01*
X024673Y009196D02*
X024599Y009269D01*
X024673Y009342D01*
X024673Y009196D02*
X024819Y009196D01*
X024746Y009085D02*
X024709Y009121D01*
X024636Y009121D01*
X024599Y009085D01*
X024599Y008975D01*
X024819Y008975D01*
X024746Y008975D02*
X024746Y009085D01*
X024020Y008089D02*
X024057Y008052D01*
X023910Y007905D01*
X023946Y007868D01*
X024020Y007868D01*
X024057Y007905D01*
X024057Y008052D01*
X024020Y008089D02*
X023946Y008089D01*
X023910Y008052D01*
X023910Y007905D01*
X023836Y007868D02*
X023836Y008015D01*
X023762Y008089D01*
X023689Y008015D01*
X023689Y007868D01*
X023689Y007979D02*
X023836Y007979D01*
X023615Y007979D02*
X023615Y008052D01*
X023578Y008089D01*
X023468Y008089D01*
X023468Y007868D01*
X023468Y007942D02*
X023578Y007942D01*
X023615Y007979D01*
X023072Y008052D02*
X022925Y007905D01*
X022925Y007868D01*
X022851Y007905D02*
X022815Y007868D01*
X022705Y007868D01*
X022705Y008089D01*
X022815Y008089D01*
X022851Y008052D01*
X022851Y008015D01*
X022815Y007979D01*
X022705Y007979D01*
X022630Y007979D02*
X022594Y007942D01*
X022484Y007942D01*
X022484Y007868D02*
X022484Y008089D01*
X022594Y008089D01*
X022630Y008052D01*
X022630Y007979D01*
X022815Y007979D02*
X022851Y007942D01*
X022851Y007905D01*
X022925Y008089D02*
X023072Y008089D01*
X023072Y008052D01*
X022049Y008089D02*
X021975Y008052D01*
X021902Y007979D01*
X022012Y007979D01*
X022049Y007942D01*
X022049Y007905D01*
X022012Y007868D01*
X021939Y007868D01*
X021902Y007905D01*
X021902Y007979D01*
X021828Y008015D02*
X021791Y007979D01*
X021681Y007979D01*
X021607Y007979D02*
X021570Y007942D01*
X021460Y007942D01*
X021460Y007868D02*
X021460Y008089D01*
X021570Y008089D01*
X021607Y008052D01*
X021607Y007979D01*
X021681Y008089D02*
X021681Y007868D01*
X021791Y007868D01*
X021828Y007905D01*
X021828Y007942D01*
X021791Y007979D01*
X021828Y008015D02*
X021828Y008052D01*
X021791Y008089D01*
X021681Y008089D01*
X020843Y008975D02*
X020623Y008975D01*
X020623Y009085D01*
X020660Y009121D01*
X020733Y009121D01*
X020770Y009085D01*
X020770Y008975D01*
X020733Y009196D02*
X020733Y009306D01*
X020770Y009342D01*
X020806Y009342D01*
X020843Y009306D01*
X020843Y009196D01*
X020623Y009196D01*
X020623Y009306D01*
X020660Y009342D01*
X020696Y009342D01*
X020733Y009306D01*
X020733Y009417D02*
X020623Y009417D01*
X020623Y009563D01*
X020696Y009527D02*
X020733Y009563D01*
X020806Y009563D01*
X020843Y009527D01*
X020843Y009453D01*
X020806Y009417D01*
X020733Y009417D02*
X020696Y009490D01*
X020696Y009527D01*
X019819Y009527D02*
X019599Y009527D01*
X019709Y009417D01*
X019709Y009563D01*
X019673Y009342D02*
X019709Y009306D01*
X019709Y009196D01*
X019709Y009121D02*
X019746Y009085D01*
X019746Y008975D01*
X019819Y008975D02*
X019599Y008975D01*
X019599Y009085D01*
X019636Y009121D01*
X019709Y009121D01*
X019599Y009196D02*
X019599Y009306D01*
X019636Y009342D01*
X019673Y009342D01*
X019709Y009306D02*
X019746Y009342D01*
X019783Y009342D01*
X019819Y009306D01*
X019819Y009196D01*
X019599Y009196D01*
X018835Y009196D02*
X018835Y009306D01*
X018798Y009342D01*
X018762Y009342D01*
X018725Y009306D01*
X018725Y009196D01*
X018725Y009121D02*
X018762Y009085D01*
X018762Y008975D01*
X018835Y008975D02*
X018615Y008975D01*
X018615Y009085D01*
X018652Y009121D01*
X018725Y009121D01*
X018615Y009196D02*
X018615Y009306D01*
X018652Y009342D01*
X018688Y009342D01*
X018725Y009306D01*
X018652Y009417D02*
X018615Y009453D01*
X018615Y009527D01*
X018652Y009563D01*
X018688Y009563D01*
X018725Y009527D01*
X018762Y009563D01*
X018798Y009563D01*
X018835Y009527D01*
X018835Y009453D01*
X018798Y009417D01*
X018725Y009490D02*
X018725Y009527D01*
X018835Y009196D02*
X018615Y009196D01*
X018036Y008089D02*
X017962Y008089D01*
X017925Y008052D01*
X017851Y008052D02*
X017851Y008015D01*
X017815Y007979D01*
X017705Y007979D01*
X017630Y007979D02*
X017594Y007942D01*
X017484Y007942D01*
X017484Y007868D02*
X017484Y008089D01*
X017594Y008089D01*
X017630Y008052D01*
X017630Y007979D01*
X017705Y007868D02*
X017705Y008089D01*
X017815Y008089D01*
X017851Y008052D01*
X017815Y007979D02*
X017851Y007942D01*
X017851Y007905D01*
X017815Y007868D01*
X017705Y007868D01*
X017925Y007868D02*
X018072Y008015D01*
X018072Y008052D01*
X018036Y008089D01*
X018072Y007868D02*
X017925Y007868D01*
X017049Y007868D02*
X016902Y007868D01*
X016975Y007868D02*
X016975Y008089D01*
X016902Y008015D01*
X016828Y008015D02*
X016791Y007979D01*
X016681Y007979D01*
X016607Y007979D02*
X016570Y007942D01*
X016460Y007942D01*
X016460Y007868D02*
X016460Y008089D01*
X016570Y008089D01*
X016607Y008052D01*
X016607Y007979D01*
X016681Y008089D02*
X016681Y007868D01*
X016791Y007868D01*
X016828Y007905D01*
X016828Y007942D01*
X016791Y007979D01*
X016828Y008015D02*
X016828Y008052D01*
X016791Y008089D01*
X016681Y008089D01*
X015843Y008975D02*
X015623Y008975D01*
X015623Y009085D01*
X015660Y009121D01*
X015733Y009121D01*
X015770Y009085D01*
X015770Y008975D01*
X015733Y009196D02*
X015733Y009306D01*
X015770Y009342D01*
X015806Y009342D01*
X015843Y009306D01*
X015843Y009196D01*
X015623Y009196D01*
X015623Y009306D01*
X015660Y009342D01*
X015696Y009342D01*
X015733Y009306D01*
X015806Y009417D02*
X015660Y009563D01*
X015806Y009563D01*
X015843Y009527D01*
X015843Y009453D01*
X015806Y009417D01*
X015660Y009417D01*
X015623Y009453D01*
X015623Y009527D01*
X015660Y009563D01*
X014859Y009527D02*
X014859Y009453D01*
X014822Y009417D01*
X014785Y009342D02*
X014639Y009342D01*
X014675Y009417D02*
X014639Y009453D01*
X014639Y009527D01*
X014675Y009563D01*
X014712Y009563D01*
X014749Y009527D01*
X014785Y009563D01*
X014822Y009563D01*
X014859Y009527D01*
X014749Y009527D02*
X014749Y009490D01*
X014785Y009342D02*
X014859Y009269D01*
X014785Y009196D01*
X014639Y009196D01*
X014675Y009121D02*
X014712Y009121D01*
X014749Y009085D01*
X014785Y009121D01*
X014822Y009121D01*
X014859Y009085D01*
X014859Y009011D01*
X014822Y008975D01*
X014749Y009048D02*
X014749Y009085D01*
X014675Y009121D02*
X014639Y009085D01*
X014639Y009011D01*
X014675Y008975D01*
X013835Y009051D02*
X013798Y009014D01*
X013835Y009051D02*
X013835Y009124D01*
X013798Y009161D01*
X013725Y009161D01*
X013688Y009124D01*
X013688Y009087D01*
X013725Y009014D01*
X013615Y009014D01*
X013615Y009161D01*
X013615Y009235D02*
X013762Y009235D01*
X013835Y009308D01*
X013762Y009382D01*
X013615Y009382D01*
X012851Y009382D02*
X012631Y009235D01*
X012851Y009235D01*
X012814Y009161D02*
X012741Y009161D01*
X012741Y009087D01*
X012814Y009014D02*
X012851Y009051D01*
X012851Y009124D01*
X012814Y009161D01*
X012667Y009161D02*
X012631Y009124D01*
X012631Y009051D01*
X012667Y009014D01*
X012814Y009014D01*
X012851Y009382D02*
X012631Y009382D01*
X012631Y009456D02*
X012631Y009566D01*
X012667Y009603D01*
X012814Y009603D01*
X012851Y009566D01*
X012851Y009456D01*
X012631Y009456D01*
X030702Y014171D02*
X030702Y014282D01*
X030738Y014318D01*
X030812Y014318D01*
X030848Y014282D01*
X030848Y014171D01*
X030922Y014171D02*
X030702Y014171D01*
X030775Y014392D02*
X030702Y014466D01*
X030775Y014539D01*
X030922Y014539D01*
X030922Y014613D02*
X030885Y014613D01*
X030738Y014760D01*
X030702Y014760D01*
X030702Y014613D01*
X030812Y014539D02*
X030812Y014392D01*
X030775Y014392D02*
X030922Y014392D01*
D13*
X030987Y014361D02*
X030987Y014061D01*
X030987Y014211D02*
X031437Y014211D01*
X031437Y014521D02*
X030987Y014521D01*
X031437Y014821D01*
X030987Y014821D01*
X031137Y014982D02*
X030987Y015132D01*
X031437Y015132D01*
X031437Y014982D02*
X031437Y015282D01*
X031437Y016226D02*
X030987Y016226D01*
X030987Y016451D01*
X031062Y016526D01*
X031212Y016526D01*
X031287Y016451D01*
X031287Y016226D01*
X031287Y016376D02*
X031437Y016526D01*
X031362Y016686D02*
X031437Y016762D01*
X031437Y016912D01*
X031362Y016987D01*
X031287Y016987D01*
X031212Y016912D01*
X031212Y016762D01*
X031137Y016686D01*
X031062Y016686D01*
X030987Y016762D01*
X030987Y016912D01*
X031062Y016987D01*
X030987Y017147D02*
X030987Y017447D01*
X030987Y017297D02*
X031437Y017297D01*
X028199Y017632D02*
X028124Y017557D01*
X027824Y017557D01*
X027749Y017632D01*
X027749Y017782D01*
X027824Y017857D01*
X027899Y018018D02*
X027749Y018168D01*
X028199Y018168D01*
X028199Y018018D02*
X028199Y018318D01*
X028124Y018478D02*
X027824Y018478D01*
X027749Y018553D01*
X027749Y018703D01*
X027824Y018778D01*
X028124Y018478D01*
X028199Y018553D01*
X028199Y018703D01*
X028124Y018778D01*
X027824Y018778D01*
X028124Y017857D02*
X028199Y017782D01*
X028199Y017632D01*
X026173Y016902D02*
X026173Y016451D01*
X026023Y016451D02*
X026323Y016451D01*
X026023Y016751D02*
X026173Y016902D01*
X025713Y016902D02*
X025563Y016751D01*
X025403Y016827D02*
X025328Y016902D01*
X025177Y016902D01*
X025102Y016827D01*
X025102Y016526D01*
X025177Y016451D01*
X025328Y016451D01*
X025403Y016526D01*
X025563Y016451D02*
X025863Y016451D01*
X025713Y016451D02*
X025713Y016902D01*
X024800Y016451D02*
X024500Y016451D01*
X024650Y016451D02*
X024650Y016902D01*
X024500Y016751D01*
X024340Y016827D02*
X024265Y016902D01*
X024114Y016902D01*
X024039Y016827D01*
X024039Y016526D01*
X024114Y016451D01*
X024265Y016451D01*
X024340Y016526D01*
X023688Y016878D02*
X023688Y017035D01*
X023530Y017035D01*
X021946Y017375D02*
X021645Y017375D01*
X021795Y017375D02*
X021795Y017826D01*
X021645Y017676D01*
X021485Y017751D02*
X021410Y017826D01*
X021260Y017826D01*
X021185Y017751D01*
X021185Y017450D01*
X021260Y017375D01*
X021410Y017375D01*
X021485Y017450D01*
X021028Y017375D02*
X020878Y017375D01*
X020953Y017375D02*
X020953Y017826D01*
X020878Y017826D02*
X021028Y017826D01*
X021044Y017937D02*
X020894Y017937D01*
X020819Y018012D01*
X020659Y018012D02*
X020584Y017937D01*
X020434Y017937D01*
X020359Y018012D01*
X020359Y018313D01*
X020434Y018388D01*
X020584Y018388D01*
X020659Y018313D01*
X020819Y018313D02*
X020894Y018388D01*
X021044Y018388D01*
X021119Y018313D01*
X021119Y018238D01*
X021044Y018163D01*
X021119Y018088D01*
X021119Y018012D01*
X021044Y017937D01*
X021044Y018163D02*
X020969Y018163D01*
X019075Y017442D02*
X019000Y017442D01*
X018700Y017742D01*
X018625Y017742D01*
X018625Y017442D01*
X018625Y017132D02*
X019075Y017132D01*
X019075Y017282D02*
X019075Y016981D01*
X019000Y016821D02*
X019075Y016746D01*
X019075Y016596D01*
X019000Y016521D01*
X018700Y016521D01*
X018625Y016596D01*
X018625Y016746D01*
X018700Y016821D01*
X018775Y016981D02*
X018625Y017132D01*
X019335Y016974D02*
X019335Y016674D01*
X019410Y016599D01*
X019560Y016599D01*
X019635Y016674D01*
X019796Y016674D02*
X019871Y016599D01*
X020021Y016599D01*
X020096Y016674D01*
X020096Y016974D01*
X020021Y017049D01*
X019871Y017049D01*
X019796Y016974D01*
X019796Y016899D01*
X019871Y016824D01*
X020096Y016824D01*
X020538Y016878D02*
X020538Y017035D01*
X020696Y017035D01*
X019635Y016974D02*
X019560Y017049D01*
X019410Y017049D01*
X019335Y016974D01*
X017996Y018291D02*
X017846Y018291D01*
X017771Y018366D01*
X017771Y018516D02*
X017921Y018591D01*
X017996Y018591D01*
X018071Y018516D01*
X018071Y018366D01*
X017996Y018291D01*
X017771Y018516D02*
X017771Y018741D01*
X018071Y018741D01*
X017611Y018666D02*
X017611Y018516D01*
X017535Y018441D01*
X017310Y018441D01*
X017310Y018291D02*
X017310Y018741D01*
X017535Y018741D01*
X017611Y018666D01*
X017460Y018441D02*
X017611Y018291D01*
X016560Y017531D02*
X016259Y017531D01*
X016259Y017306D01*
X016410Y017381D01*
X016485Y017381D01*
X016560Y017306D01*
X016560Y017156D01*
X016485Y017081D01*
X016334Y017081D01*
X016259Y017156D01*
X016099Y017081D02*
X015799Y017081D01*
X015949Y017081D02*
X015949Y017531D01*
X015799Y017381D01*
X015639Y017456D02*
X015564Y017531D01*
X015414Y017531D01*
X015339Y017456D01*
X015339Y017156D01*
X015414Y017081D01*
X015564Y017081D01*
X015639Y017156D01*
X015494Y017688D02*
X015494Y017839D01*
X015494Y017763D02*
X015944Y017763D01*
X015944Y017688D02*
X015944Y017839D01*
X015869Y017995D02*
X015944Y018070D01*
X015944Y018221D01*
X015869Y018296D01*
X015869Y018456D02*
X015944Y018531D01*
X015944Y018681D01*
X015869Y018756D01*
X015794Y018756D01*
X015719Y018681D01*
X015719Y018606D01*
X015719Y018681D02*
X015644Y018756D01*
X015569Y018756D01*
X015494Y018681D01*
X015494Y018531D01*
X015569Y018456D01*
X015569Y018296D02*
X015494Y018221D01*
X015494Y018070D01*
X015569Y017995D01*
X015869Y017995D01*
X013818Y018014D02*
X013368Y018014D01*
X013368Y018240D01*
X013443Y018315D01*
X013593Y018315D01*
X013668Y018240D01*
X013668Y018014D01*
X013668Y018165D02*
X013818Y018315D01*
X013743Y018475D02*
X013818Y018550D01*
X013818Y018700D01*
X013743Y018775D01*
X013668Y018775D01*
X013593Y018700D01*
X013593Y018475D01*
X013743Y018475D01*
X013593Y018475D02*
X013443Y018625D01*
X013368Y018775D01*
X013409Y019253D02*
X013559Y019253D01*
X013634Y019328D01*
X013634Y019479D01*
X013484Y019479D01*
X013334Y019629D02*
X013334Y019328D01*
X013409Y019253D01*
X013174Y019253D02*
X013024Y019403D01*
X013099Y019403D02*
X012874Y019403D01*
X012874Y019253D02*
X012874Y019704D01*
X013099Y019704D01*
X013174Y019629D01*
X013174Y019479D01*
X013099Y019403D01*
X013334Y019629D02*
X013409Y019704D01*
X013559Y019704D01*
X013634Y019629D01*
X012713Y019704D02*
X012713Y019253D01*
X012713Y019479D02*
X012413Y019479D01*
X012253Y019629D02*
X012178Y019704D01*
X012028Y019704D01*
X011953Y019629D01*
X011953Y019328D01*
X012028Y019253D01*
X012178Y019253D01*
X012253Y019328D01*
X012413Y019253D02*
X012413Y019704D01*
X015864Y015800D02*
X016164Y015350D01*
X016325Y015350D02*
X016625Y015350D01*
X016475Y015350D02*
X016475Y015800D01*
X016325Y015650D01*
X016164Y015800D02*
X015864Y015350D01*
X016287Y014922D02*
X016512Y014922D01*
X016587Y014847D01*
X016587Y014697D01*
X016512Y014622D01*
X016287Y014622D01*
X016437Y014622D02*
X016587Y014472D01*
X016747Y014547D02*
X016822Y014472D01*
X016972Y014472D01*
X017047Y014547D01*
X017047Y014622D01*
X016972Y014697D01*
X016897Y014697D01*
X016972Y014697D02*
X017047Y014772D01*
X017047Y014847D01*
X016972Y014922D01*
X016822Y014922D01*
X016747Y014847D01*
X016287Y014922D02*
X016287Y014472D01*
X016287Y014174D02*
X016512Y014174D01*
X016587Y014099D01*
X016587Y013949D01*
X016512Y013874D01*
X016287Y013874D01*
X016437Y013874D02*
X016587Y013724D01*
X016747Y013724D02*
X017047Y014024D01*
X017047Y014099D01*
X016972Y014174D01*
X016822Y014174D01*
X016747Y014099D01*
X016747Y013724D02*
X017047Y013724D01*
X016287Y013724D02*
X016287Y014174D01*
X017347Y014715D02*
X017347Y015015D01*
X017422Y015091D01*
X017572Y015091D01*
X017647Y015015D01*
X017807Y014940D02*
X017957Y015091D01*
X017957Y014640D01*
X017807Y014640D02*
X018107Y014640D01*
X018267Y014715D02*
X018342Y014640D01*
X018492Y014640D01*
X018568Y014715D01*
X018568Y014790D01*
X018492Y014865D01*
X018342Y014865D01*
X018267Y014940D01*
X018267Y015015D01*
X018342Y015091D01*
X018492Y015091D01*
X018568Y015015D01*
X018568Y014940D01*
X018492Y014865D01*
X018342Y014865D02*
X018267Y014790D01*
X018267Y014715D01*
X017647Y014715D02*
X017572Y014640D01*
X017422Y014640D01*
X017347Y014715D01*
X017894Y013437D02*
X017819Y013362D01*
X017819Y013062D01*
X017894Y012987D01*
X018044Y012987D01*
X018119Y013062D01*
X018279Y013062D02*
X018279Y013137D01*
X018354Y013212D01*
X018505Y013212D01*
X018580Y013137D01*
X018580Y013062D01*
X018505Y012987D01*
X018354Y012987D01*
X018279Y013062D01*
X018354Y013212D02*
X018279Y013287D01*
X018279Y013362D01*
X018354Y013437D01*
X018505Y013437D01*
X018580Y013362D01*
X018580Y013287D01*
X018505Y013212D01*
X018119Y013362D02*
X018044Y013437D01*
X017894Y013437D01*
X019658Y013362D02*
X019658Y013062D01*
X019733Y012987D01*
X019883Y012987D01*
X019958Y013062D01*
X020118Y013062D02*
X020118Y012987D01*
X020118Y013062D02*
X020418Y013362D01*
X020418Y013437D01*
X020118Y013437D01*
X019958Y013362D02*
X019883Y013437D01*
X019733Y013437D01*
X019658Y013362D01*
X020341Y013689D02*
X020538Y013886D01*
X020538Y014043D01*
X020538Y013886D02*
X020696Y013886D01*
X022347Y012929D02*
X022347Y012629D01*
X022422Y012554D01*
X022572Y012554D01*
X022647Y012629D01*
X022807Y012629D02*
X022882Y012554D01*
X023032Y012554D01*
X023107Y012629D01*
X023107Y012704D01*
X023032Y012779D01*
X022807Y012779D01*
X022807Y012629D01*
X022807Y012779D02*
X022957Y012929D01*
X023107Y013004D01*
X022647Y012929D02*
X022572Y013004D01*
X022422Y013004D01*
X022347Y012929D01*
X023528Y012063D02*
X023528Y011762D01*
X023603Y011687D01*
X023753Y011687D01*
X023828Y011762D01*
X023988Y011762D02*
X024063Y011687D01*
X024213Y011687D01*
X024288Y011762D01*
X024288Y011913D01*
X024213Y011988D01*
X024138Y011988D01*
X023988Y011913D01*
X023988Y012138D01*
X024288Y012138D01*
X023828Y012063D02*
X023753Y012138D01*
X023603Y012138D01*
X023528Y012063D01*
X022488Y011093D02*
X022338Y010943D01*
X022178Y011018D02*
X022103Y011093D01*
X021878Y011093D01*
X021878Y010643D01*
X022103Y010643D01*
X022178Y010718D01*
X022178Y011018D01*
X022488Y011093D02*
X022488Y010643D01*
X022338Y010643D02*
X022638Y010643D01*
X023419Y010497D02*
X023419Y010347D01*
X023494Y010272D01*
X023569Y010272D01*
X023644Y010347D01*
X023644Y010572D01*
X023794Y010572D02*
X023494Y010572D01*
X023419Y010497D01*
X023794Y010572D02*
X023869Y010497D01*
X023869Y010347D01*
X023794Y010272D01*
X023869Y010112D02*
X023719Y009962D01*
X023719Y010037D02*
X023719Y009812D01*
X023869Y009812D02*
X023419Y009812D01*
X023419Y010037D01*
X023494Y010112D01*
X023644Y010112D01*
X023719Y010037D01*
X023496Y009470D02*
X023571Y009395D01*
X023270Y009094D01*
X023346Y009019D01*
X023496Y009019D01*
X023571Y009094D01*
X023571Y009395D01*
X023496Y009470D02*
X023346Y009470D01*
X023270Y009395D01*
X023270Y009094D01*
X023110Y009019D02*
X022810Y009019D01*
X022960Y009019D02*
X022960Y009470D01*
X022810Y009320D01*
X022650Y009395D02*
X022650Y009244D01*
X022575Y009169D01*
X022350Y009169D01*
X022350Y009019D02*
X022350Y009470D01*
X022575Y009470D01*
X022650Y009395D01*
X022500Y009169D02*
X022650Y009019D01*
X021259Y009614D02*
X020839Y009614D01*
X020957Y010643D02*
X021257Y010643D01*
X021417Y010643D02*
X021717Y010643D01*
X021567Y010868D02*
X021417Y010868D01*
X021417Y011093D02*
X021417Y010643D01*
X020957Y010643D02*
X020957Y011093D01*
X020601Y011096D02*
X020451Y010946D01*
X020451Y011021D02*
X020451Y010796D01*
X020601Y010796D02*
X020151Y010796D01*
X020151Y011021D01*
X020226Y011096D01*
X020376Y011096D01*
X020451Y011021D01*
X020451Y011256D02*
X020376Y011331D01*
X020376Y011481D01*
X020451Y011557D01*
X020526Y011557D01*
X020601Y011481D01*
X020601Y011331D01*
X020526Y011256D01*
X020451Y011256D01*
X020376Y011331D02*
X020301Y011256D01*
X020226Y011256D01*
X020151Y011331D01*
X020151Y011481D01*
X020226Y011557D01*
X020301Y011557D01*
X020376Y011481D01*
X020274Y012220D02*
X020274Y012670D01*
X020048Y012445D01*
X020349Y012445D01*
X019888Y012445D02*
X019888Y012595D01*
X019813Y012670D01*
X019588Y012670D01*
X019588Y012220D01*
X019588Y012370D02*
X019813Y012370D01*
X019888Y012445D01*
X019738Y012370D02*
X019888Y012220D01*
X019241Y011665D02*
X019015Y011440D01*
X019316Y011440D01*
X019241Y011215D02*
X019241Y011665D01*
X018705Y011665D02*
X018705Y011215D01*
X018555Y011215D02*
X018855Y011215D01*
X018555Y011515D02*
X018705Y011665D01*
X018395Y011590D02*
X018320Y011665D01*
X018170Y011665D01*
X018095Y011590D01*
X018095Y011290D01*
X018170Y011215D01*
X018320Y011215D01*
X018395Y011290D01*
X018445Y010602D02*
X018370Y010527D01*
X018370Y010227D01*
X018445Y010152D01*
X018595Y010152D01*
X018670Y010227D01*
X018831Y010152D02*
X019131Y010152D01*
X019244Y010054D02*
X019169Y009979D01*
X019244Y010054D02*
X019395Y010054D01*
X019470Y009979D01*
X019470Y009904D01*
X019169Y009603D01*
X019470Y009603D01*
X019009Y009678D02*
X018934Y009603D01*
X018784Y009603D01*
X018709Y009678D01*
X018709Y009979D01*
X018784Y010054D01*
X018934Y010054D01*
X019009Y009979D01*
X018981Y010152D02*
X018981Y010602D01*
X018831Y010452D01*
X018670Y010527D02*
X018595Y010602D01*
X018445Y010602D01*
X018477Y010054D02*
X018477Y009603D01*
X018402Y009603D02*
X018552Y009603D01*
X018552Y010054D02*
X018402Y010054D01*
X019291Y010227D02*
X019366Y010152D01*
X019516Y010152D01*
X019591Y010227D01*
X019591Y010302D01*
X019516Y010377D01*
X019441Y010377D01*
X019516Y010377D02*
X019591Y010452D01*
X019591Y010527D01*
X019516Y010602D01*
X019366Y010602D01*
X019291Y010527D01*
X021417Y011093D02*
X021717Y011093D01*
X023530Y013886D02*
X023688Y013886D01*
X023688Y014043D01*
X024784Y015428D02*
X024934Y015428D01*
X025009Y015503D01*
X025169Y015653D02*
X025469Y015653D01*
X025394Y015428D02*
X025394Y015878D01*
X025169Y015653D01*
X025009Y015803D02*
X024934Y015878D01*
X024784Y015878D01*
X024709Y015803D01*
X024709Y015503D01*
X024784Y015428D01*
X027011Y015576D02*
X027461Y015576D01*
X027461Y015426D02*
X027461Y015727D01*
X027461Y015887D02*
X027161Y016187D01*
X027086Y016187D01*
X027011Y016112D01*
X027011Y015962D01*
X027086Y015887D01*
X027011Y015576D02*
X027161Y015426D01*
X027086Y015266D02*
X027011Y015191D01*
X027011Y015041D01*
X027086Y014966D01*
X027386Y014966D01*
X027461Y015041D01*
X027461Y015191D01*
X027386Y015266D01*
X027679Y015396D02*
X027679Y015622D01*
X027754Y015697D01*
X027904Y015697D01*
X027979Y015622D01*
X027979Y015396D01*
X028129Y015396D02*
X027679Y015396D01*
X027979Y015546D02*
X028129Y015697D01*
X028129Y015857D02*
X028054Y015857D01*
X027754Y016157D01*
X027679Y016157D01*
X027679Y015857D01*
X027461Y015887D02*
X027461Y016187D01*
X024261Y018257D02*
X023960Y018257D01*
X024261Y018558D01*
X024261Y018633D01*
X024186Y018708D01*
X024036Y018708D01*
X023960Y018633D01*
X023800Y018708D02*
X023500Y018257D01*
X023800Y018257D02*
X023500Y018708D01*
X030987Y013826D02*
X031062Y013901D01*
X031137Y013901D01*
X031212Y013826D01*
X031212Y013600D01*
X030987Y013600D02*
X030987Y013826D01*
X031212Y013826D02*
X031287Y013901D01*
X031362Y013901D01*
X031437Y013826D01*
X031437Y013600D01*
X030987Y013600D01*
X029966Y012128D02*
X029815Y012128D01*
X029815Y011978D01*
X029665Y012128D02*
X029590Y012053D01*
X029590Y011903D01*
X029665Y011827D01*
X029966Y011827D01*
X030041Y011903D01*
X030041Y012053D01*
X029966Y012128D01*
X029966Y011667D02*
X029665Y011667D01*
X029590Y011592D01*
X029590Y011442D01*
X029665Y011367D01*
X029966Y011367D01*
X030041Y011442D01*
X030041Y011592D01*
X029966Y011667D01*
X030041Y011207D02*
X029890Y011057D01*
X029890Y011132D02*
X029890Y010907D01*
X030041Y010907D02*
X029590Y010907D01*
X029590Y011132D01*
X029665Y011207D01*
X029815Y011207D01*
X029890Y011132D01*
X029815Y010747D02*
X029890Y010671D01*
X029890Y010446D01*
X030041Y010446D02*
X029590Y010446D01*
X029590Y010671D01*
X029665Y010747D01*
X029815Y010747D01*
X016050Y010047D02*
X016050Y009713D01*
X014475Y009713D01*
X014579Y010317D02*
X014879Y010317D01*
X015066Y010047D02*
X016050Y010047D01*
X015066Y010047D02*
X015066Y010598D01*
X015066Y011976D02*
X015066Y012528D01*
X016050Y012528D01*
X016050Y012862D01*
X014475Y012862D01*
X014690Y012475D02*
X014690Y012175D01*
X014539Y012325D02*
X014840Y012325D01*
X013097Y012173D02*
X013097Y010402D01*
D14*
X016788Y011381D02*
X016788Y011981D01*
X016790Y011998D01*
X016794Y012015D01*
X016801Y012031D01*
X016811Y012045D01*
X016824Y012058D01*
X016838Y012068D01*
X016854Y012075D01*
X016871Y012079D01*
X016888Y012081D01*
X017888Y012081D01*
X017905Y012079D01*
X017922Y012075D01*
X017938Y012068D01*
X017952Y012058D01*
X017965Y012045D01*
X017975Y012031D01*
X017982Y012015D01*
X017986Y011998D01*
X017988Y011981D01*
X017988Y011381D01*
X017986Y011364D01*
X017982Y011347D01*
X017975Y011331D01*
X017965Y011317D01*
X017952Y011304D01*
X017938Y011294D01*
X017922Y011287D01*
X017905Y011283D01*
X017888Y011281D01*
X016888Y011281D01*
X016871Y011283D01*
X016854Y011287D01*
X016838Y011294D01*
X016824Y011304D01*
X016811Y011317D01*
X016801Y011331D01*
X016794Y011347D01*
X016790Y011364D01*
X016788Y011381D01*
X018845Y012232D02*
X019081Y012232D01*
X019081Y012705D02*
X018845Y012705D01*
X015735Y013689D02*
X015499Y013689D01*
X015499Y014161D02*
X015735Y014161D01*
X015735Y014476D02*
X015499Y014476D01*
X015499Y014949D02*
X015735Y014949D01*
X014951Y017814D02*
X014314Y017814D01*
X014314Y017851D01*
X014314Y018169D02*
X014314Y018206D01*
X014314Y018543D02*
X014314Y018580D01*
X014314Y018897D02*
X014314Y018934D01*
X014951Y018934D01*
X014951Y018897D01*
X014951Y018580D02*
X014951Y018169D01*
X014951Y017851D02*
X014951Y017814D01*
X016483Y018256D02*
X016719Y018256D01*
X016719Y018728D02*
X016483Y018728D01*
X018333Y018512D02*
X018333Y018276D01*
X018806Y018276D02*
X018806Y018512D01*
X013294Y018374D02*
X013294Y018138D01*
X012822Y018138D02*
X012822Y018374D01*
X020125Y010244D02*
X020125Y010008D01*
X020597Y010008D02*
X020597Y010244D01*
X021601Y009496D02*
X021837Y009496D01*
X021837Y009024D02*
X021601Y009024D01*
X022841Y010008D02*
X022841Y010244D01*
X023314Y010244D02*
X023314Y010008D01*
X027644Y016701D02*
X027644Y016937D01*
X028117Y016937D02*
X028117Y016701D01*
D15*
X028593Y016311D02*
X028593Y017287D01*
X028987Y017799D02*
X030199Y017799D01*
X030593Y017287D02*
X030593Y016299D01*
X030199Y015799D02*
X028987Y015799D01*
X028987Y015437D02*
X030199Y015437D01*
X030593Y014925D02*
X030593Y013949D01*
X030199Y013437D02*
X028987Y013437D01*
X028593Y013949D02*
X028593Y014937D01*
X029093Y014437D02*
X029095Y014481D01*
X029101Y014525D01*
X029111Y014568D01*
X029124Y014610D01*
X029141Y014651D01*
X029162Y014690D01*
X029186Y014727D01*
X029213Y014762D01*
X029243Y014794D01*
X029276Y014824D01*
X029312Y014850D01*
X029349Y014874D01*
X029389Y014893D01*
X029430Y014910D01*
X029473Y014922D01*
X029516Y014931D01*
X029560Y014936D01*
X029604Y014937D01*
X029648Y014934D01*
X029692Y014927D01*
X029735Y014916D01*
X029777Y014902D01*
X029817Y014884D01*
X029856Y014862D01*
X029892Y014838D01*
X029926Y014810D01*
X029958Y014779D01*
X029987Y014745D01*
X030013Y014709D01*
X030035Y014671D01*
X030054Y014631D01*
X030069Y014589D01*
X030081Y014547D01*
X030089Y014503D01*
X030093Y014459D01*
X030093Y014415D01*
X030089Y014371D01*
X030081Y014327D01*
X030069Y014285D01*
X030054Y014243D01*
X030035Y014203D01*
X030013Y014165D01*
X029987Y014129D01*
X029958Y014095D01*
X029926Y014064D01*
X029892Y014036D01*
X029856Y014012D01*
X029817Y013990D01*
X029777Y013972D01*
X029735Y013958D01*
X029692Y013947D01*
X029648Y013940D01*
X029604Y013937D01*
X029560Y013938D01*
X029516Y013943D01*
X029473Y013952D01*
X029430Y013964D01*
X029389Y013981D01*
X029349Y014000D01*
X029312Y014024D01*
X029276Y014050D01*
X029243Y014080D01*
X029213Y014112D01*
X029186Y014147D01*
X029162Y014184D01*
X029141Y014223D01*
X029124Y014264D01*
X029111Y014306D01*
X029101Y014349D01*
X029095Y014393D01*
X029093Y014437D01*
X029093Y016799D02*
X029095Y016843D01*
X029101Y016887D01*
X029111Y016930D01*
X029124Y016972D01*
X029141Y017013D01*
X029162Y017052D01*
X029186Y017089D01*
X029213Y017124D01*
X029243Y017156D01*
X029276Y017186D01*
X029312Y017212D01*
X029349Y017236D01*
X029389Y017255D01*
X029430Y017272D01*
X029473Y017284D01*
X029516Y017293D01*
X029560Y017298D01*
X029604Y017299D01*
X029648Y017296D01*
X029692Y017289D01*
X029735Y017278D01*
X029777Y017264D01*
X029817Y017246D01*
X029856Y017224D01*
X029892Y017200D01*
X029926Y017172D01*
X029958Y017141D01*
X029987Y017107D01*
X030013Y017071D01*
X030035Y017033D01*
X030054Y016993D01*
X030069Y016951D01*
X030081Y016909D01*
X030089Y016865D01*
X030093Y016821D01*
X030093Y016777D01*
X030089Y016733D01*
X030081Y016689D01*
X030069Y016647D01*
X030054Y016605D01*
X030035Y016565D01*
X030013Y016527D01*
X029987Y016491D01*
X029958Y016457D01*
X029926Y016426D01*
X029892Y016398D01*
X029856Y016374D01*
X029817Y016352D01*
X029777Y016334D01*
X029735Y016320D01*
X029692Y016309D01*
X029648Y016302D01*
X029604Y016299D01*
X029560Y016300D01*
X029516Y016305D01*
X029473Y016314D01*
X029430Y016326D01*
X029389Y016343D01*
X029349Y016362D01*
X029312Y016386D01*
X029276Y016412D01*
X029243Y016442D01*
X029213Y016474D01*
X029186Y016509D01*
X029162Y016546D01*
X029141Y016585D01*
X029124Y016626D01*
X029111Y016668D01*
X029101Y016711D01*
X029095Y016755D01*
X029093Y016799D01*
X026798Y018256D02*
X026798Y018492D01*
X026070Y019024D02*
X025243Y019024D01*
X024514Y018492D02*
X024514Y018256D01*
X025243Y017724D02*
X026070Y017724D01*
X017558Y010273D02*
X017219Y010273D01*
X017708Y009818D02*
X017708Y009607D01*
X017558Y009153D02*
X017219Y009153D01*
X013570Y014280D02*
X012940Y014280D01*
X013570Y014280D02*
X013570Y014752D01*
X013018Y014752D01*
X013018Y016484D01*
X013570Y016484D01*
X013570Y016957D01*
X012940Y016957D01*
X011877Y016957D02*
X011877Y014280D01*
D16*
X016235Y012386D02*
X016561Y012386D01*
X016398Y012549D02*
X016398Y012222D01*
X016398Y010299D02*
X016398Y009972D01*
D17*
X012467Y018423D03*
D18*
X026463Y018453D03*
D19*
X026796Y012316D02*
X026893Y012316D01*
X026845Y012316D02*
X026845Y012074D01*
X026796Y012026D01*
X026748Y012026D01*
X026699Y012074D01*
X026994Y012316D02*
X027188Y012316D01*
X027091Y012316D02*
X027091Y012026D01*
X027289Y012026D02*
X027289Y012219D01*
X027386Y012316D01*
X027482Y012219D01*
X027482Y012026D01*
X027583Y012074D02*
X027583Y012267D01*
X027632Y012316D01*
X027729Y012316D01*
X027777Y012267D01*
X027777Y012171D02*
X027680Y012171D01*
X027777Y012171D02*
X027777Y012074D01*
X027729Y012026D01*
X027632Y012026D01*
X027583Y012074D01*
X027482Y012171D02*
X027289Y012171D01*
M02*
