%
M48
M72
T01C0.0157
T02C0.0256
T03C0.0400
T04C0.0440
%
T01
X15223Y9437
X18766Y11878
X19436Y13370
X18924Y13650
X18451Y14358
X18727Y14634
X19003Y14909
X19318Y15224
X19003Y15421
X18727Y15657
X18963Y15972
X19672Y16071
X20066Y16071
X21404Y16169
X21404Y15815
X21404Y15461
X21759Y15461
X22113Y15461
X22113Y15815
X22467Y15815
X22467Y16169
X22113Y16169
X21759Y16169
X21759Y15815
X22467Y15461
X22822Y15461
X22822Y15815
X22822Y16169
X24268Y16061
X22822Y15106
X22822Y14752
X22467Y14752
X22113Y14752
X22113Y15106
X22467Y15106
X21759Y15106
X21759Y14752
X21404Y14752
X21404Y15106
X22310Y13413
X21325Y13177
X23885Y11406
X23924Y10697
X23806Y9634
X28806Y10854
X29475Y9870
X29593Y16799
X29593Y18965
X29199Y18965
X28806Y18965
X28412Y18965
X28018Y18965
X27625Y18965
X27231Y18965
X25853Y18965
X25459Y18965
X24081Y18965
X23688Y18965
X23294Y18965
X22900Y18965
X22507Y18965
X20932Y18965
X20538Y18965
X20144Y18965
X19751Y18965
X19357Y18965
X18963Y18965
X18176Y18965
X17782Y18965
X17388Y18965
X16995Y18965
X16601Y18965
X16207Y18965
X15814Y18965
X14633Y18965
X13648Y17705
X13097Y17232
X13097Y16720
X12117Y18374
X17113Y15382
X14514Y14437
X14278Y14673
X14042Y14909
X13058Y13335
X16286Y12193
X23097Y17469
X29987Y18965
X30381Y18965
X30774Y18965
X31168Y18965
T02
X27481Y14650
X26981Y14650
X26981Y14150
X27481Y14150
X27481Y13650
X26981Y13650
X26981Y13150
X27481Y13150
X27481Y12650
X26981Y12650
T03
X12739Y8531
X13739Y8531
X14739Y8531
X15739Y8531
X16739Y8531
X17739Y8531
X18739Y8531
X19739Y8531
X20739Y8531
X21739Y8531
X22739Y8531
X23739Y8531
X24739Y8531
X25739Y8531
X26739Y8531
X27739Y8531
X28739Y8531
X29739Y8531
X30739Y8531
X30735Y10272
X30735Y11272
X30735Y12272
T04
X13963Y11801
X13963Y10801
M30
